<svg width="342" height="208" viewBox="0 0 342 208" fill="none" xmlns="http://www.w3.org/2000/svg">
<g clip-path="url(#clip0_146_206)">
<path d="M255.691 31.417C257.979 30.2829 260.944 31.6045 262.315 34.3688C263.098 35.9487 263.188 37.6564 262.696 39.0427L262.728 39.1056L271.719 55.1118L287.808 46.6525C290.825 44.7943 294.458 44.2938 296.559 47.1465C299.162 50.6812 297.789 55.7192 293.753 57.4449L272.758 66.4208C269.775 67.696 266.324 66.3087 265.054 63.3239L257.519 41.6095C256.118 41.1612 254.813 40.0556 254.03 38.4758C252.66 35.7114 253.403 32.5511 255.691 31.417Z" fill="#9B616A"/>
<path d="M294.454 41.8608L275.915 51.086L282.94 64.7016L301.602 53.6756" fill="#CACACB"/>
<path d="M274.143 191.092H267.191V200.255H274.143V191.092Z" fill="#9B616A"/>
<path d="M272.956 206.579H258.178C256.915 206.579 255.645 206.29 254.507 205.742L251.783 204.433C251.219 204.162 250.855 203.583 250.855 202.958C250.855 202.225 251.349 201.577 252.055 201.381L257.676 199.826L267.291 194.772L267.298 194.808C267.478 195.719 267.757 197.095 267.792 197.178C268.778 198.308 269.791 198.829 270.803 198.726C272.568 198.547 273.741 196.509 273.752 196.489L273.761 196.473L273.779 196.475C274.192 196.518 274.498 196.684 274.688 196.97C275.09 197.577 274.845 198.512 274.804 198.653C275.286 199.125 275.503 201.759 275.52 201.972C276.217 202.71 276.548 203.421 276.504 204.083C276.466 204.662 276.145 205.199 275.55 205.681C274.835 206.26 273.913 206.579 272.956 206.579Z" fill="#090814"/>
<path d="M319.995 186.912L313.319 188.854L315.879 197.652L322.554 195.71L319.995 186.912Z" fill="#9B616A"/>
<path d="M323.181 202.114L308.992 206.242C307.779 206.595 306.479 206.672 305.233 206.464L302.252 205.968C301.635 205.865 301.124 205.411 300.949 204.811C300.745 204.107 301.037 203.347 301.661 202.962L306.623 199.898L314.444 192.359L314.461 192.392C314.888 193.217 315.54 194.46 315.597 194.53C316.86 195.339 317.978 195.556 318.921 195.175C320.565 194.51 321.122 192.226 321.128 192.203L321.132 192.185L321.15 192.182C321.558 192.108 321.898 192.182 322.16 192.404C322.717 192.874 322.742 193.841 322.742 193.987C323.337 194.306 324.281 196.775 324.356 196.974C325.232 197.489 325.748 198.078 325.891 198.726C326.016 199.293 325.858 199.899 325.421 200.527C324.896 201.283 324.101 201.847 323.181 202.114Z" fill="#090814"/>
<path d="M300.197 26.4171C300.197 20.175 295.137 15.1147 288.895 15.1147C282.653 15.1147 277.593 20.175 277.593 26.4171C277.593 31.4795 280.921 35.7639 285.509 37.2028L287.694 51.6426L298.832 42.3605C298.832 42.3605 296.426 39.2955 295.136 35.8396C298.186 33.8156 300.197 30.3519 300.197 26.4171Z" fill="#9B616A"/>
<path d="M304.657 82.2006L306.289 59.3592C306.43 57.3783 306.18 55.389 305.552 53.5051L300.717 39.0012L286.476 43.5755L280.467 57.3231L277.194 63.3232C275.704 66.0547 276.192 69.4414 278.392 71.6415L280.467 73.7165L277.574 84.3238L277.878 84.313L277.468 84.3655C277.468 84.3655 258.135 142.535 258.827 192.005H283.645L285.119 134.579L289.43 194.234L322.134 192.351L304.657 82.2006Z" fill="#CACACB"/>
<path d="M303.826 41.2673C303.826 41.2673 303.299 45.2716 298.409 45.4024C291.796 45.5792 288.49 45.6676 288.49 45.6676C288.49 45.6676 296.875 25.2614 293.427 27.5603C289.979 29.8593 280.785 20.2215 280.785 20.2215L278.072 25.3096C278.072 25.3096 271.591 22.9625 278.774 17.2153C278.774 17.2153 287.344 10.5894 296.442 14.5682C305.541 18.5471 303.826 41.2673 303.826 41.2673Z" fill="#090814"/>
<path d="M263.714 86.7037C263.582 84.1537 265.973 81.9575 269.054 81.7983C270.815 81.7073 272.418 82.3031 273.495 83.3049L273.565 83.3013L291.826 81.4101L290.456 63.284C289.949 59.7777 290.934 56.2443 294.386 55.45C298.664 54.4657 302.742 57.7272 302.722 62.1169L302.617 84.9496C302.602 88.1934 299.958 90.8095 296.714 90.7894L273.793 89.0764C272.825 90.1838 271.292 90.9417 269.531 91.0327C266.45 91.1919 263.845 89.2537 263.714 86.7037Z" fill="#9B616A"/>
<path d="M288.7 55.2808L289.799 75.9596L305.085 74.9228L302.382 53.4158" fill="#CACACB"/>
<path d="M264.55 25.6611H187.255C185.128 25.6611 183.403 27.6134 183.403 30.0216C183.403 32.4298 185.128 34.3821 187.255 34.3821H264.55C266.678 34.3821 268.403 32.4298 268.403 30.0216C268.403 27.6134 266.678 25.6611 264.55 25.6611Z" fill="#746FC6"/>
<path d="M264.433 61.1072H220.069C218.513 61.1072 217.251 63.0594 217.251 65.4676V65.4677C217.251 67.8759 218.513 69.8281 220.069 69.8281H264.433C265.989 69.8281 267.251 67.8759 267.251 65.4676C267.251 63.0594 265.989 61.1072 264.433 61.1072Z" fill="#746FC6"/>
<path d="M252.313 84.176H265.253C267.662 84.176 269.614 86.1283 269.614 88.5365C269.614 90.9447 267.662 92.897 265.253 92.897H252.313C249.905 92.897 247.952 90.9447 247.952 88.5365C247.952 86.1283 249.905 84.176 252.313 84.176Z" fill="#746FC6"/>
<path d="M212.443 49.8545H155.104C152.989 49.8545 151.274 51.8067 151.274 54.215V54.215C151.274 56.6232 152.989 58.5754 155.104 58.5754H212.443C214.559 58.5754 216.274 56.6232 216.274 54.215C216.274 51.8067 214.559 49.8545 212.443 49.8545Z" fill="#CACACB"/>
<path d="M155.634 72.3599H174.764C177.172 72.3599 179.124 74.3121 179.124 76.7203C179.124 79.1285 177.172 81.0808 174.764 81.0808H155.634C153.226 81.0808 151.274 79.1285 151.274 76.7203C151.274 74.3121 153.226 72.3599 155.634 72.3599Z" fill="#CACACB"/>
<path d="M265.071 38.0393H216.81C214.949 38.0393 213.44 39.9916 213.44 42.3998V42.3998C213.44 44.808 214.949 46.7603 216.81 46.7603H265.071C266.932 46.7603 268.44 44.808 268.44 42.3998C268.44 39.9916 266.932 38.0393 265.071 38.0393Z" fill="#746FC6"/>
<path d="M99.4122 184.277L105.183 188.531L109.437 182.761L103.666 178.506L99.4122 184.277Z" fill="#E8989B"/>
<path d="M94.9235 187.92C94.7245 187.157 94.787 186.514 95.1093 186.01C95.478 185.434 96.1877 185.047 97.2184 184.86C97.3624 184.694 99.154 182.64 99.8428 182.543C99.8956 182.401 100.264 181.475 100.969 181.218C101.302 181.096 101.657 181.145 102.027 181.362L102.043 181.372L102.04 181.39C102.038 181.415 101.764 183.824 103.12 185.052C103.897 185.757 105.056 185.944 106.566 185.61C106.646 185.562 107.719 184.591 108.426 183.945L108.454 183.919L113.343 193.998L117.056 198.729C117.523 199.323 117.536 200.163 117.087 200.772C116.705 201.29 116.048 201.548 115.415 201.428L112.352 200.848C111.073 200.606 109.842 200.069 108.794 199.296L96.5272 190.253C95.7325 189.667 95.1629 188.839 94.9235 187.92Z" fill="#090814"/>
<path d="M164.925 200.73H172.094V193.561H164.925V200.73Z" fill="#E8989B"/>
<path d="M163.473 206.326C162.86 205.829 162.529 205.275 162.489 204.678C162.444 203.995 162.786 203.263 163.504 202.501C163.522 202.282 163.745 199.565 164.242 199.079C164.2 198.933 163.947 197.969 164.362 197.343C164.558 197.048 164.873 196.877 165.299 196.832L165.318 196.831L165.327 196.847C165.339 196.868 166.549 198.969 168.368 199.154C169.412 199.26 170.456 198.723 171.473 197.558C171.51 197.472 171.797 196.053 171.983 195.114L171.99 195.076L181.906 200.288L187.702 201.892C188.43 202.094 188.939 202.762 188.939 203.518C188.939 204.163 188.564 204.76 187.983 205.039L185.173 206.389C183.999 206.954 182.69 207.252 181.388 207.252H166.148C165.161 207.252 164.211 206.923 163.473 206.326Z" fill="#090814"/>
<path d="M128.405 79.7661H162.765L174.219 194.48H162.765L145.109 120.871L139.859 141.639L110.943 187.007L99.5543 175.917L124.111 137.123L128.405 79.7661Z" fill="#090814"/>
<path d="M138.728 15.0845C138.728 8.64743 143.946 3.4292 150.383 3.4292C156.82 3.4292 162.038 8.64743 162.038 15.0845C162.038 20.305 158.606 24.7233 153.875 26.2071L151.622 41.0979L140.135 31.5259C140.135 31.5259 142.617 28.3652 143.947 24.8013C140.802 22.714 138.728 19.1422 138.728 15.0845Z" fill="#E8989B"/>
<path d="M144.27 25.1561C144.27 25.1561 142.048 13.9121 145.26 15.2505C148.472 16.5888 147.613 18.8513 147.613 18.8513L150.691 14.3009V9.08136L152.698 6.80617L161.264 10.4197C161.264 10.4197 165.814 -2.96376 152.832 1.31895C152.832 1.31895 141.724 -3.23143 138.512 4.66481C130.897 22.4526 144.27 25.1561 144.27 25.1561Z" fill="#090814"/>
<path d="M128.523 80.5227L158.983 80.6578C161.519 80.7858 163.611 79.2788 163.37 77.4967L157.598 34.7244L147.276 29.3144C145.098 28.173 142.43 28.5953 140.711 30.3531L134.594 36.6086C132.99 38.2493 131.959 40.1339 131.586 42.1085L128.73 70.4257C128.543 71.4184 128.704 72.4285 129.199 73.3673L130.319 75.4898C131.507 77.7395 125.123 80.3511 128.523 80.5227Z" fill="#C8D4F7"/>
<path d="M165.468 85.6129L156.031 79.4022L159.657 73.8918L169.094 80.1026C170.733 79.7381 172.656 80.077 174.337 81.1834C177.279 83.1194 178.365 86.6624 176.763 89.0971C175.16 91.5317 171.477 91.936 168.535 90C166.854 88.8936 165.782 87.2622 165.468 85.6129Z" fill="#E8989B"/>
<path d="M136.977 49.3791L139.94 72.8724L159.256 84.9032L168.003 76.3132L149.192 66.1217L152.019 38.4043" fill="#C8D4F7"/>
</g>
<defs>
<clipPath id="clip0_146_206">
<rect width="342" height="207.238" fill="white" transform="translate(0 0.0144043)"/>
</clipPath>
</defs>
</svg>
