<svg width="298" height="240" viewBox="0 0 298 240" fill="none" xmlns="http://www.w3.org/2000/svg">
<g clip-path="url(#clip0_79_27)" filter="url(#filter0_d_79_27)">
<path d="M174.859 35.2936L185.662 39.0496V22.6027H175.859L174.859 35.2936Z" fill="#F8A8AB"/>
<path d="M184.325 27.1528C190.27 27.1528 195.089 22.056 195.089 15.7688C195.089 9.48167 190.27 4.3849 184.325 4.3849C178.379 4.3849 173.56 9.48167 173.56 15.7688C173.56 22.056 178.379 27.1528 184.325 27.1528Z" fill="#F8A8AB"/>
<path d="M181.583 16.6611L183.067 18.5658L185.75 13.5965C185.75 13.5965 189.175 13.7839 189.175 11.094C189.175 8.40417 192.318 8.32833 192.318 8.32833C192.318 8.32833 196.768 0.111552 187.551 2.27504C187.551 2.27504 181.156 -2.35527 177.98 1.60146C177.98 1.60146 168.232 6.79382 171.02 15.8314L175.656 25.15L176.706 23.04C176.706 23.04 176.069 14.1854 181.583 16.6522V16.6611Z" fill="#2F2E43"/>
<path d="M180.452 205.991H171.62V219.244H180.452V205.991Z" fill="#F8A8AB"/>
<path d="M179.474 226.836C177.964 226.978 170.405 227.612 170.025 225.779C169.679 224.097 170.189 222.339 170.261 222.098C170.987 214.453 171.257 214.368 171.421 214.319C171.678 214.238 172.429 214.618 173.648 215.447L173.724 215.501L173.741 215.595C173.762 215.715 174.302 218.521 176.863 218.088C178.617 217.794 179.187 217.383 179.368 217.183C179.221 217.111 179.035 216.986 178.904 216.772C178.714 216.46 178.681 216.058 178.807 215.577C179.136 214.305 180.123 212.427 180.166 212.352L180.279 212.137L190.319 219.301L196.52 221.175C196.988 221.318 197.363 221.67 197.553 222.143C197.815 222.803 197.654 223.57 197.148 224.052C196.022 225.123 193.786 226.956 191.437 227.184C190.812 227.246 189.986 227.268 189.058 227.268C185.181 227.268 179.52 226.845 179.478 226.836H179.474Z" fill="#2F2E43"/>
<path d="M191.732 91.7317L168.561 90.4782C168.561 90.4782 165.009 104.717 169.497 119.554L170.037 208.899H183.131L195.473 116.734L191.732 91.7317Z" fill="#2F2E43"/>
<path d="M187.826 32.1308L175.108 24.9935C175.108 24.9935 161.403 46.1733 163.297 57.6465C165.195 69.1197 168.561 90.4779 168.561 90.4779L196.617 91.7314L191.719 49.6706L187.826 32.1308Z" fill="#E2E3E4"/>
<path d="M186.737 205.991H177.904V219.244H186.737V205.991Z" fill="#F8A8AB"/>
<path d="M185.758 226.836C184.248 226.978 176.689 227.612 176.31 225.779C175.964 224.097 176.474 222.339 176.546 222.098C177.271 214.453 177.541 214.368 177.706 214.319C177.963 214.238 178.714 214.618 179.933 215.447L180.009 215.501L180.026 215.595C180.047 215.715 180.587 218.521 183.147 218.088C184.902 217.794 185.472 217.383 185.653 217.183C185.505 217.111 185.32 216.986 185.189 216.772C184.999 216.46 184.965 216.058 185.092 215.577C185.421 214.305 186.408 212.427 186.45 212.352L186.564 212.137L196.603 219.301L202.804 221.175C203.272 221.318 203.648 221.67 203.838 222.143C204.099 222.803 203.939 223.57 203.433 224.052C202.306 225.123 200.071 226.956 197.721 227.184C197.097 227.246 196.27 227.268 195.342 227.268C191.466 227.268 185.805 226.845 185.763 226.836H185.758Z" fill="#2F2E43"/>
<path d="M196.616 91.7317L168.561 90.4782C168.561 90.4782 165.009 104.717 169.497 119.554L174.922 208.899H188.015L200.358 116.734L196.616 91.7317Z" fill="#2F2E43"/>
<path d="M193.689 150.088C191.727 150.088 189.589 149.579 187.475 149.08C185.91 148.709 184.531 148.616 183.426 148.544C181.747 148.433 180.418 148.344 179.68 147.304C178.95 146.278 178.95 144.534 179.68 141.095C180.65 136.527 182.81 129.229 185.451 123.225C188.863 115.481 192.141 111.917 195.199 112.644C199.295 113.616 200.927 120.847 201.539 125.067C202.391 130.96 202.315 137.963 201.353 142.495C200.079 148.495 197.156 150.083 193.685 150.083H193.689V150.088ZM194.435 113.897C192.187 113.897 189.428 117.368 186.602 123.791C184 129.702 181.874 136.888 180.916 141.389C180.304 144.28 180.237 145.854 180.692 146.501C181.081 147.045 182.097 147.117 183.502 147.206C184.653 147.282 186.088 147.376 187.75 147.773C194.355 149.338 198.485 149.909 200.117 142.206C201.868 133.953 200.535 115.285 194.921 113.951C194.76 113.911 194.596 113.893 194.431 113.893H194.435V113.897Z" fill="#DFDFE0"/>
<path d="M220.403 205.558L157.488 205.995L147.715 201.24L153.409 139.81L159.137 140.118L218.079 143.29L220.403 205.558Z" fill="#746FC6"/>
<path opacity="0.2" d="M157.488 205.995L147.715 201.24L153.409 139.81L159.137 140.118L157.488 205.995Z" fill="#272223"/>
<path d="M194.638 138.757C193.469 138.757 192.191 138.454 190.934 138.155C190.002 137.932 189.179 137.879 188.517 137.834C187.517 137.767 186.724 137.714 186.286 137.094C185.851 136.482 185.851 135.443 186.286 133.391C186.864 130.666 188.15 126.316 189.728 122.739C191.761 118.122 193.718 115.999 195.54 116.431C197.983 117.011 198.957 121.32 199.32 123.841C199.826 127.356 199.784 131.531 199.21 134.23C198.451 137.807 196.709 138.753 194.638 138.753V138.757ZM195.085 117.181C193.743 117.181 192.098 119.25 190.415 123.082C188.863 126.606 187.593 130.889 187.028 133.574C186.661 135.296 186.623 136.237 186.897 136.621C187.129 136.946 187.733 136.987 188.572 137.04C189.26 137.085 190.112 137.143 191.103 137.379C195.038 138.311 197.502 138.65 198.476 134.06C199.518 129.14 198.725 118.01 195.38 117.216C195.283 117.194 195.186 117.181 195.089 117.181H195.085Z" fill="#DFDFE0"/>
<path d="M210.562 171.834L173.054 172.093L167.224 169.26L170.62 132.633L174.036 132.816L209.178 134.707L210.562 171.834Z" fill="#E2E3E4"/>
<path opacity="0.2" d="M173.054 172.093L167.224 169.26L170.62 132.633L174.036 132.816L173.054 172.093Z" fill="#272223"/>
<path d="M196.832 114.036C197.46 117.301 196.308 120.285 194.267 120.7C192.225 121.115 190.061 118.8 189.437 115.534C189.171 114.232 189.213 112.885 189.559 111.6L187.075 97.7225L193.495 96.6474L195.262 110.44C196.06 111.493 196.595 112.724 196.832 114.036Z" fill="#F8A8AB"/>
<path d="M171.649 31.8726C171.649 31.8726 181.038 30.6147 182.161 33.5811C183.283 36.5475 196.469 107.157 196.469 107.157H187.771L171.649 31.8726Z" fill="#E2E3E4"/>
<path d="M106.41 46.9856L96.9779 50.2642V35.9094H105.537L106.41 46.9856Z" fill="#F8A8AB"/>
<path d="M98.1462 39.8838C103.337 39.8838 107.544 35.4341 107.544 29.9451C107.544 24.4562 103.337 20.0065 98.1462 20.0065C92.9557 20.0065 88.748 24.4562 88.748 29.9451C88.748 35.4341 92.9557 39.8838 98.1462 39.8838Z" fill="#F8A8AB"/>
<path d="M100.728 28.9593C99.1546 28.9103 98.1211 27.2286 97.5095 25.694C96.8978 24.1595 96.2693 22.3975 94.8098 21.7641C93.616 21.2466 91.5111 24.7484 90.5705 23.816C89.5876 22.8436 90.5452 17.852 91.5871 16.9554C92.629 16.0587 94.0547 15.8848 95.3961 15.8178C98.6695 15.6573 101.964 15.9383 105.174 16.6476C107.161 17.0847 109.202 17.7449 110.637 19.2616C112.45 21.1886 112.914 24.0926 113.045 26.8092C113.18 29.5883 113.028 32.4967 111.75 34.9279C110.472 37.359 107.798 39.1522 105.233 38.5322C104.976 37.0601 105.237 35.5479 105.338 34.0491C105.435 32.5547 105.334 30.9399 104.47 29.7489C103.605 28.5579 101.761 28.085 100.757 29.1422" fill="#2F2E43"/>
<path d="M112.29 32.4035C113.231 31.6764 114.357 31.0652 115.513 31.2169C116.761 31.3775 117.82 32.4659 118.141 33.7551C118.461 35.0443 118.103 36.4628 117.327 37.5155C116.555 38.5683 115.403 39.2642 114.188 39.6121C113.484 39.8128 112.712 39.8976 112.041 39.5943C111.054 39.1437 110.518 37.8099 110.906 36.7483" fill="#2F2E43"/>
<path d="M103.296 206.726H94.4636V219.98H103.296V206.726Z" fill="#F8A8AB"/>
<path d="M85.8584 228C84.9304 228 84.1036 227.978 83.4793 227.915C81.134 227.688 78.8941 225.854 77.7678 224.784C77.2617 224.302 77.1014 223.535 77.3629 222.874C77.5527 222.402 77.9281 222.045 78.3964 221.906L84.5971 220.033L94.6365 212.869L94.7504 213.083C94.7926 213.163 95.7796 215.041 96.1086 216.308C96.2352 216.79 96.2014 217.191 96.0116 217.504C95.8809 217.718 95.6953 217.843 95.5476 217.914C95.729 218.115 96.2985 218.525 98.0532 218.82C100.614 219.248 101.154 216.442 101.175 216.326L101.192 216.232L101.268 216.179C102.487 215.349 103.237 214.97 103.495 215.05C103.655 215.099 103.925 215.188 104.655 222.83C104.726 223.071 105.237 224.828 104.891 226.51C104.516 228.339 96.9565 227.71 95.4422 227.567C95.4 227.572 89.7391 228 85.8626 228H85.8584Z" fill="#2F2E43"/>
<path d="M128.448 196.305L120.953 201.248L127.585 212.494L135.08 207.551L128.448 196.305Z" fill="#F8A8AB"/>
<path d="M118.491 226.184C117.453 226.184 116.5 226.051 115.821 225.926C115.155 225.801 114.632 225.239 114.522 224.534C114.446 224.025 114.585 223.512 114.914 223.133L119.238 218.075L124.173 206.379L124.376 206.494C124.451 206.539 126.227 207.578 127.143 208.471C127.493 208.81 127.666 209.171 127.657 209.541C127.653 209.8 127.56 210.005 127.468 210.152C127.721 210.224 128.408 210.25 130.045 209.519C132.432 208.453 131.487 205.767 131.445 205.656L131.412 205.567L131.45 205.482C132.07 204.095 132.513 203.354 132.774 203.278C132.939 203.229 133.209 203.153 137.65 209.233C137.832 209.394 139.144 210.603 139.692 212.222C140.287 213.984 133.559 217.682 132.205 218.405C132.162 218.44 125.122 223.851 122.229 225.39C121.081 226.002 119.723 226.189 118.487 226.189L118.491 226.184Z" fill="#2F2E43"/>
<path d="M109.801 95.8976H85.07L82.8259 120.227L92.6459 210.121H105.271L100.222 158.202L120.701 205.076L131.922 196.77L115.93 153.009C115.93 153.009 121.642 114.887 117.154 105.39C112.666 95.8932 109.801 95.8976 109.801 95.8976Z" fill="#2F2E43"/>
<path d="M122.102 97.379H82.8259L94.6073 43.68H111.721L122.102 97.379Z" fill="#9F3E99"/>
<path d="M73.0692 42.623C72.4406 39.3577 73.5922 36.3734 75.6338 35.9585C77.6754 35.5437 79.8394 37.8588 80.4637 41.1241C80.7294 42.4267 80.6872 43.7738 80.3413 45.0586L82.8259 58.9361L76.4058 60.0111L74.6383 46.2184C73.8411 45.1656 73.3054 43.9344 73.0692 42.623Z" fill="#F8A8AB"/>
<path d="M111.303 43.68H96.2105L86.0361 65.1989L82.1976 49.0731L73.7654 50.0188C73.7654 50.0188 75.7606 81.5254 84.4796 80.4593C93.1987 79.3931 113.535 51.0091 111.299 43.6756H111.303V43.68Z" fill="#9F3E99"/>
<path d="M125.556 145.747C124.388 145.747 123.11 145.444 121.853 145.145C120.921 144.922 120.098 144.869 119.436 144.824C118.436 144.757 117.643 144.704 117.204 144.084C116.77 143.472 116.77 142.433 117.204 140.381C117.782 137.656 119.069 133.306 120.646 129.729C122.68 125.112 124.637 122.988 126.459 123.421C128.901 124.001 129.876 128.31 130.239 130.831C130.745 134.346 130.703 138.521 130.129 141.22C129.37 144.797 127.628 145.743 125.556 145.743V145.747ZM126.004 124.171C124.662 124.171 123.017 126.24 121.334 130.072C119.782 133.596 118.512 137.879 117.947 140.564C117.58 142.286 117.542 143.227 117.816 143.611C118.048 143.936 118.651 143.976 119.491 144.03C120.178 144.075 121.03 144.133 122.022 144.369C125.957 145.301 128.421 145.64 129.395 141.05C130.437 136.13 129.644 125 126.299 124.206C126.202 124.184 126.105 124.171 126.008 124.171H126.004Z" fill="#DFDFE0"/>
<path d="M141.484 178.82L103.976 179.079L98.1464 176.246L101.542 139.618L104.959 139.801L140.101 141.693L141.484 178.82Z" fill="#E2E3E4"/>
<path opacity="0.2" d="M103.976 179.079L98.1464 176.246L101.542 139.618L104.959 139.801L103.976 179.079Z" fill="#272223"/>
<path d="M128.155 125.513C128.784 128.779 127.632 131.763 125.59 132.178C123.549 132.593 121.385 130.277 120.76 127.012C120.495 125.71 120.537 124.362 120.883 123.078L118.398 109.2L124.818 108.125L126.586 121.918C127.383 122.971 127.919 124.202 128.155 125.513Z" fill="#F8A8AB"/>
<path d="M102.698 43.6801C102.698 43.6801 111.273 43.2965 111.721 43.6801C114.062 45.7009 127.792 118.639 127.792 118.639H119.094L102.698 43.6801Z" fill="#9F3E99"/>
</g>
<defs>
<filter id="filter0_d_79_27" x="-16.561" y="0" width="319.756" height="239.122" filterUnits="userSpaceOnUse" color-interpolation-filters="sRGB">
<feFlood flood-opacity="0" result="BackgroundImageFix"/>
<feColorMatrix in="SourceAlpha" type="matrix" values="0 0 0 0 0 0 0 0 0 0 0 0 0 0 0 0 0 0 127 0" result="hardAlpha"/>
<feOffset dy="5.56098"/>
<feGaussianBlur stdDeviation="2.78049"/>
<feComposite in2="hardAlpha" operator="out"/>
<feColorMatrix type="matrix" values="0 0 0 0 0 0 0 0 0 0 0 0 0 0 0 0 0 0 0.25 0"/>
<feBlend mode="normal" in2="BackgroundImageFix" result="effect1_dropShadow_79_27"/>
<feBlend mode="normal" in="SourceGraphic" in2="effect1_dropShadow_79_27" result="shape"/>
</filter>
<clipPath id="clip0_79_27">
<rect width="308.634" height="228" fill="white" transform="translate(-11)"/>
</clipPath>
</defs>
</svg>
