<svg width="234" height="242" viewBox="0 0 234 242" fill="none" xmlns="http://www.w3.org/2000/svg">
<path d="M74.4325 124.619C74.8618 124.069 75.1655 123.432 75.3221 122.753C75.4787 122.073 75.4843 121.368 75.3387 120.686C75.1931 120.004 74.8997 119.362 74.4792 118.806C74.0587 118.249 73.5213 117.792 72.9049 117.466L72.5013 74.6296L64.4952 78.3038L66.2561 119.732C65.7768 120.804 65.7072 122.015 66.0607 123.134C66.4141 124.254 67.166 125.205 68.1738 125.807C69.1817 126.41 70.3755 126.621 71.529 126.402C72.6825 126.183 73.7156 125.549 74.4325 124.619Z" fill="#FFB6B6"/>
<path d="M74.2164 63.7844C74.2164 63.7844 66.4282 60.0065 65.3511 67.1342C64.274 74.2619 59.8437 92.8127 59.8437 92.8127L73.2874 91.8619L74.2164 63.7844Z" fill="#E7DBB5"/>
<path d="M169.631 239.6C169.596 239.6 169.561 239.599 169.526 239.598C168.634 239.547 167.796 239.154 167.186 238.501C166.577 237.847 166.243 236.984 166.253 236.091C166.253 230.654 162.37 227.482 158.521 226.751C154.673 226.021 149.897 227.546 147.903 232.605L146.091 237.154C144.524 238.718 142.401 239.596 140.188 239.596C137.974 239.596 135.851 238.718 134.284 237.154L134.177 237.047L134.244 236.911L166.253 171.419V169.814C166.209 169.319 166.209 168.821 166.254 168.326L166.253 3.3766C166.253 2.92445 166.344 2.47692 166.52 2.06053C166.697 1.64414 166.955 1.26738 167.279 0.952612C167.604 0.637842 167.988 0.391474 168.41 0.228115C168.832 0.0647555 169.282 -0.0122679 169.734 0.00162475C170.626 0.052616 171.464 0.44569 172.073 1.09903C172.683 1.75237 173.017 2.61565 173.006 3.50917V168.345C173.051 168.84 173.051 169.338 173.006 169.833L173.006 171.418L205.083 237.047L204.976 237.154C203.409 238.718 201.286 239.596 199.072 239.596C196.859 239.596 194.736 238.718 193.169 237.154L193.121 237.082L191.357 232.605C189.363 227.547 184.588 226.022 180.739 226.751C176.89 227.482 173.006 230.654 173.006 236.091V236.223C173.006 237.119 172.651 237.977 172.018 238.61C171.385 239.243 170.527 239.599 169.631 239.6Z" fill="#E6E6E6"/>
<path d="M228.225 119.393H111.035C109.672 119.391 108.366 118.849 107.403 117.886C106.44 116.923 105.898 115.617 105.896 114.255V32.3209C105.898 30.9586 106.44 29.6526 107.403 28.6893C108.366 27.726 109.672 27.1842 111.035 27.1827H228.225C229.587 27.1842 230.893 27.7261 231.856 28.6894C232.82 29.6526 233.361 30.9587 233.363 32.3209V114.255C233.361 115.617 232.82 116.923 231.856 117.886C230.893 118.849 229.587 119.391 228.225 119.393Z" fill="white"/>
<path d="M228.224 120.03H111.034C109.503 120.028 108.035 119.419 106.952 118.337C105.869 117.254 105.26 115.786 105.258 114.255V32.3208C105.26 30.7895 105.869 29.3215 106.952 28.2388C108.035 27.1561 109.503 26.547 111.034 26.5453H228.224C229.756 26.5471 231.224 27.1561 232.306 28.2389C233.389 29.3216 233.998 30.7896 234 32.3208V114.255C233.998 115.786 233.389 117.254 232.306 118.337C231.223 119.419 229.756 120.028 228.224 120.03ZM111.034 27.8201C109.841 27.8214 108.697 28.296 107.853 29.1397C107.009 29.9835 106.534 31.1275 106.533 32.3208V114.255C106.534 115.448 107.009 116.592 107.853 117.436C108.697 118.279 109.841 118.754 111.034 118.755H228.224C229.418 118.754 230.562 118.279 231.405 117.436C232.249 116.592 232.724 115.448 232.725 114.255V32.3208C232.724 31.1275 232.249 29.9835 231.405 29.1397C230.562 28.296 229.418 27.8214 228.224 27.8201H111.034Z" fill="#F2F2F2"/>
<path d="M186.956 32.3052H152.302C150.105 32.3027 147.998 31.4288 146.445 29.8753C144.891 28.3217 144.017 26.2153 144.015 24.0183V23.8676H195.243V24.0183C195.24 26.2153 194.366 28.3217 192.813 29.8753C191.259 31.4288 189.153 32.3027 186.956 32.3052Z" fill="#E6E6E6"/>
<path d="M187.107 124.515H152.453C150.256 124.513 148.15 123.639 146.596 122.086C145.043 120.532 144.169 118.426 144.166 116.229V116.078H195.394V116.229C195.392 118.426 194.518 120.532 192.964 122.086C191.411 123.639 189.304 124.513 187.107 124.515Z" fill="#E6E6E6"/>
<path d="M93.1364 228.251H99.2618L102.176 204.624L93.1351 204.625L93.1364 228.251Z" fill="#FFB6B6"/>
<path d="M91.0623 225.23L100.745 224.652V228.8L109.952 235.158C110.406 235.472 110.749 235.924 110.929 236.446C111.109 236.968 111.118 237.535 110.953 238.062C110.789 238.59 110.46 239.051 110.015 239.378C109.57 239.706 109.032 239.882 108.479 239.882H96.9508L94.9638 235.779L94.1879 239.882H89.8413L91.0623 225.23Z" fill="#2F2E41"/>
<path d="M62.1353 228.251H68.2607L71.1748 204.624L62.134 204.625L62.1353 228.251Z" fill="#FFB6B6"/>
<path d="M58.8126 186.509L58.8124 186.445L61.1053 175.741L62.5192 170.412L58.5891 139.212C57.6637 116.544 70.8146 105.647 70.9181 105.54L71.2033 105.244L92.2938 104.727C103.641 111.526 102.357 148.713 104.435 174.004C104.583 175.807 106.445 178.469 105.987 180.184C102.356 193.793 103.42 208.509 100.654 208.944L92.1719 208.826L87.7914 188.945L91.8349 173.782C90.0416 173.452 88.8023 164.684 88.8023 164.684C88.0208 163.756 85.3231 155.865 85.3231 155.865L81.7261 134.02L75.9469 171.592L77.3387 180.407L76.1869 183.437L71.2545 208.458L71.2021 208.861L61.9028 207.933L58.8126 186.509Z" fill="#2F2E41"/>
<path d="M60.0612 225.23L69.7444 224.652V228.8L78.9505 235.158C79.4052 235.472 79.7477 235.924 79.9279 236.446C80.1081 236.968 80.1166 237.535 79.9521 238.062C79.7877 238.59 79.4589 239.051 79.0138 239.378C78.5687 239.706 78.0305 239.882 77.4779 239.882H65.9497L63.9627 235.779L63.1868 239.882H58.8402L60.0612 225.23Z" fill="#2F2E41"/>
<path d="M89.2154 55.5803L94.3856 61.325L100.596 73.0301L97.5452 87.4634L98.8789 94.2362L100.848 101.681C93.2598 105.879 84.5165 111.104 76.2353 108.529L67.7647 105.882L68.2473 91.1974L68.4682 66.2298C68.4767 65.2708 68.6822 64.3238 69.0719 63.4476C69.4617 62.5714 70.0274 61.7846 70.7339 61.1362C71.4404 60.4877 72.2727 59.9914 73.179 59.678C74.0853 59.3646 75.0464 59.2408 76.0026 59.3144L81.46 55.2931L89.2154 55.5803Z" fill="#FBF0CA"/>
<path d="M87.7675 52.5734C93.7884 52.5734 98.6694 47.6924 98.6694 41.6714C98.6694 35.6505 93.7884 30.7695 87.7675 30.7695C81.7465 30.7695 76.8655 35.6505 76.8655 41.6714C76.8655 47.6924 81.7465 52.5734 87.7675 52.5734Z" fill="#FFB6B6"/>
<path d="M100.595 37.7368C100.403 38.805 95.8137 39.3205 95.9518 37.4201C95.0589 39.2093 93.7245 41.8059 95.4242 44.7803C94.7584 45.5054 94.3391 46.4224 94.226 47.4003C94.1129 48.3782 94.312 49.3667 94.7946 50.2246C95.2783 51.0108 95.6834 51.8426 96.0043 52.708C96.0691 52.9181 96.1153 53.1335 96.1425 53.3516C96.1699 53.5708 96.1377 53.7934 96.0495 53.9959C95.9612 54.1985 95.8201 54.3735 95.6409 54.5028C95.4617 54.632 95.2511 54.7106 95.031 54.7304C94.811 54.7502 94.5897 54.7104 94.3903 54.6152C89.7672 52.3509 81.705 52.7347 76.6472 54.1162C76.6809 53.1323 76.6674 52.1506 76.6068 51.1712C76.4222 52.396 75.9281 53.5534 75.1713 54.534C74.3053 54.7901 73.4562 55.0563 72.634 55.3192C72.5086 55.3598 72.3746 55.3657 72.2461 55.3362C72.1177 55.3066 71.9996 55.2429 71.9045 55.1516C71.8095 55.0603 71.7409 54.945 71.7062 54.8178C71.6715 54.6907 71.6719 54.5565 71.7073 54.4296C71.8676 53.848 71.8975 53.2382 71.795 52.6437C71.586 51.4104 70.966 50.2951 70.528 49.1258C70.0899 47.9566 69.8406 46.6121 70.3763 45.4832C71.2086 43.731 73.5539 43.1952 74.5884 41.5542C75.7509 39.7111 74.8478 37.3085 75.0298 35.1351C75.2859 32.062 77.803 29.5651 80.6402 28.3588C85.5531 26.2696 91.6994 27.9615 95.3824 31.8231C95.899 31.4743 96.5021 31.2754 97.1249 31.2487C97.7477 31.2219 98.3657 31.3683 98.9103 31.6715C99.9988 32.2544 100.78 32.5577 101.269 33.6932C101.697 34.6907 100.791 36.6653 100.595 37.7368Z" fill="#2F2E41"/>
<path d="M95.9129 165.94L70.2637 140.291C69.9658 139.992 69.7986 139.588 69.7986 139.166C69.7986 138.744 69.9658 138.34 70.2636 138.041L88.1963 120.109C88.4948 119.811 88.8992 119.644 89.3209 119.644C89.7426 119.644 90.147 119.811 90.4455 120.109L116.095 145.758C116.393 146.056 116.56 146.461 116.56 146.883C116.56 147.304 116.393 147.709 116.095 148.007L98.162 165.94C97.8635 166.238 97.4591 166.405 97.0375 166.405C96.6158 166.405 96.2114 166.238 95.9129 165.94Z" fill="white"/>
<path d="M97.0375 166.829C96.7728 166.83 96.5106 166.779 96.266 166.677C96.0214 166.576 95.7993 166.428 95.6125 166.24L69.9632 140.591C69.5857 140.213 69.3736 139.7 69.3736 139.166C69.3736 138.632 69.5857 138.119 69.9632 137.741L87.896 119.808C88.2741 119.431 88.7867 119.219 89.321 119.219C89.8554 119.219 90.3679 119.431 90.7461 119.808L116.395 145.458C116.773 145.836 116.985 146.348 116.985 146.882C116.985 147.417 116.773 147.929 116.395 148.307L98.4624 166.24C98.2756 166.428 98.0535 166.576 97.809 166.677C97.5644 166.779 97.3022 166.83 97.0375 166.829ZM89.3209 120.069C89.1679 120.068 89.0162 120.098 88.8748 120.156C88.7334 120.215 88.605 120.301 88.497 120.409L70.5641 138.342C70.3459 138.561 70.2234 138.857 70.2234 139.166C70.2234 139.475 70.3459 139.771 70.5641 139.99L96.2134 165.639C96.4357 165.851 96.7307 165.969 97.0375 165.969C97.3442 165.969 97.6392 165.851 97.8615 165.639L115.794 147.707C116.012 147.488 116.135 147.191 116.135 146.882C116.135 146.573 116.012 146.277 115.794 146.058L90.145 120.409C90.037 120.301 89.9086 120.215 89.7671 120.156C89.6256 120.098 89.474 120.068 89.3209 120.069Z" fill="#E6E6E6"/>
<path d="M86.2482 122.494C85.8189 121.945 85.5152 121.308 85.3586 120.628C85.202 119.949 85.1964 119.243 85.342 118.561C85.4876 117.879 85.781 117.237 86.2015 116.681C86.622 116.125 87.1594 115.667 87.7758 115.341L88.1794 72.5052L96.1855 76.1793L94.4245 117.608C94.9039 118.68 94.9734 119.89 94.62 121.01C94.2666 122.129 93.5147 123.081 92.5069 123.683C91.499 124.285 90.3052 124.497 89.1517 124.278C87.9982 124.059 86.9651 123.424 86.2482 122.494Z" fill="#FFB6B6"/>
<path d="M86.4642 61.6599C86.4642 61.6599 94.2524 57.882 95.3295 65.0097C96.4066 72.1374 100.837 90.6882 100.837 90.6882L87.3932 89.7374L86.4642 61.6599Z" fill="#E7DBB5"/>
<mask id="mask0_149_59" style="mask-type:luminance" maskUnits="userSpaceOnUse" x="114" y="81" width="24" height="32">
<path d="M114 81.9374H138V112.056H114V81.9374Z" fill="white"/>
</mask>
<g mask="url(#mask0_149_59)">
<path fill-rule="evenodd" clip-rule="evenodd" d="M125.576 84.5057C125.576 84.5057 126.126 85.2374 126.094 85.3287C126.063 85.4199 125.935 85.4486 125.624 85.2288C125.312 85.0084 124.692 84.6044 123.644 84.4925C120.977 84.2073 116.96 86.8076 117.015 86.9924C117.099 87.2719 119.487 89.556 124.05 89.0504C125.82 88.3985 128.63 86.8111 128.76 86.8053C128.889 86.799 129.338 86.7892 128.967 87.3827C128.595 87.9755 127.942 89.3953 127.528 89.7414C127.114 90.0875 123.285 92.0755 120.808 93.6692C118.331 95.2629 116.374 97.4202 115.712 101.3C115.051 105.181 118.798 108.086 122.672 108.773C127.249 109.585 133.573 109 138.039 106.096C137.478 106.849 131.87 110.538 127.495 111.654C123.12 112.77 118.677 111.355 116.827 109.555C115.225 107.996 112.661 104.671 115.058 98.9393C117.276 93.6347 119.951 91.7696 119.951 91.7696C119.951 91.7696 116.3 91.2307 115.454 89.3029C114.765 87.7322 115.479 85.0337 117.371 83.4767C119.262 81.9197 122.75 80.7627 125.576 84.5057Z" fill="#424242"/>
</g>
<mask id="mask1_149_59" style="mask-type:luminance" maskUnits="userSpaceOnUse" x="135" y="53" width="41" height="48">
<path d="M135 53.4078H175.748V100.663H135V53.4078Z" fill="white"/>
</mask>
<g mask="url(#mask1_149_59)">
<path d="M175.757 53.4401L175.113 54.5085C173.852 55.2945 170.565 56.9479 165.243 59.4688C159.476 62.2003 155.626 64.1055 153.7 65.1642C148.226 68.2185 144.244 71.1122 141.764 73.8542C138.326 77.6549 136.603 82.0706 136.603 87.1107C136.603 93.0789 138.81 96.0622 143.246 96.0622C145.807 96.0622 148.589 94.7114 151.603 92.0202C154.657 89.2378 156.18 86.5862 156.18 84.0661C156.18 81.8688 155.635 80.2154 154.556 79.1058C153.831 78.5515 153.106 78.0173 152.399 77.4831C152.893 76.0612 153.508 74.5902 154.264 73.0578C155.464 73.5411 156.593 74.5902 157.652 76.1831C158.085 76.3235 158.519 76.3945 158.952 76.3945C161.009 76.3945 162.692 75.6182 164.033 74.056C165.313 72.6043 165.938 70.8701 165.898 68.8641C166.109 68.4106 166.322 68.1782 166.513 68.1782L166.664 68.2387C166.452 69.8518 166.361 71.1017 166.402 71.9894L166.694 72.1403C167.33 72.1403 168.005 71.5552 168.73 70.3965C169.426 69.3176 169.85 68.1176 170.001 66.8177C170.243 64.6599 170.394 63.4301 170.475 63.1283C170.575 62.7143 170.737 62.5134 170.979 62.5134C171.251 62.5134 171.392 63.1888 171.392 64.5493C171.392 72.5841 169.124 76.9594 164.597 77.6953C164.144 78.5724 163.367 79.3382 162.268 79.9838C161.16 80.6189 160.111 80.9416 159.104 80.9416C158.71 80.9416 158.418 80.8908 158.216 80.7899C157.984 84.9029 156.593 89.0571 154.053 93.2298C150.998 98.2103 147.45 100.701 143.387 100.701C140.534 100.701 138.346 99.39 136.834 96.7683C135.614 94.621 134.999 92.0097 134.999 88.9151C134.999 83.1987 136.723 78.1891 140.171 73.8841C143.045 70.2754 147.319 66.9589 152.994 63.9239C155.273 62.7047 159.104 60.9705 164.476 58.7321C169.497 56.6453 173.257 54.8813 175.757 53.4393V53.4401Z" fill="#424242"/>
</g>
<mask id="mask2_149_59" style="mask-type:luminance" maskUnits="userSpaceOnUse" x="112" y="46" width="9" height="28">
<path d="M112 46.4078H121V73.5702H112V46.4078Z" fill="white"/>
</mask>
<g mask="url(#mask2_149_59)">
<path fill-rule="evenodd" clip-rule="evenodd" d="M116.634 49.9361C116.634 49.9361 115.725 49.1776 115.175 49.4625C114.626 49.7468 114.229 50.2515 114.073 50.1161C113.917 49.9807 114.423 48.1752 114.706 47.5626C114.99 46.95 115.697 46.2595 116.62 46.4676C117.544 46.6751 120.238 48.8493 120.594 49.0498C120.949 49.2509 120.918 49.6694 120.812 49.8711C120.705 50.0727 120.039 51.7862 119.505 51.9914C118.971 52.1966 116.279 52.5799 114.637 53.6134C113.284 54.4646 113.169 54.8632 113.148 55.3245C113.107 56.1681 113.93 58.4889 114.919 61.0183C115.908 63.5478 116.415 65.3217 116.265 67.9959C116.114 70.6696 115.52 73.0133 115.196 73.3949C114.872 73.7771 115.104 72.9681 115.204 72.1164C115.302 71.2646 115.466 67.6847 114.047 64.3105C112.628 60.9357 111.882 58.7779 112.09 56.1353C112.288 53.5976 113.169 51.2328 116.634 49.9361Z" fill="#424242"/>
</g>
<mask id="mask3_149_59" style="mask-type:luminance" maskUnits="userSpaceOnUse" x="120" y="42" width="28" height="33">
<path d="M120 42.4078H148V74.528H120V42.4078Z" fill="white"/>
</mask>
<g mask="url(#mask3_149_59)">
<path d="M138.619 43.7158C137.93 45.0486 137.339 45.9085 136.853 46.2961L135.12 45.1209C135.468 44.4771 136.052 43.5778 136.873 42.4092C137.306 42.5997 137.647 42.7705 137.89 42.9281C138.376 43.2231 138.619 43.4859 138.619 43.7158ZM148.008 46.5063C148.008 49.4144 146.937 52.3429 144.797 55.297C142.742 58.127 140.339 60.1555 137.582 61.3767C137.365 62.5782 137.267 63.3527 137.293 63.7009L137.063 63.9111L136.873 63.7403L137.024 61.6263C135.947 62.0067 134.719 62.1972 133.334 62.1972C132.894 64.8432 131.87 67.417 130.255 69.9316C128.279 72.9843 126.138 74.5076 123.827 74.5076C121.28 74.5076 120 72.7806 120 69.3141C120 64.8826 121.7 61.1402 125.101 58.1007C125.83 57.4372 127.905 55.9802 131.312 53.7349C134.135 51.8765 135.927 50.386 136.695 49.2568L136.912 49.1385L136.984 49.3488C136.715 50.2743 135.796 51.3779 134.213 52.6576C133.36 53.3539 131.798 54.4569 129.546 55.9671C127.57 57.2868 126.283 58.2387 125.699 58.8161C122.475 61.9673 120.866 64.7907 120.866 67.279C120.866 69.7674 122.009 71.0083 124.294 71.0083C125.718 71.0083 127.326 70.1149 129.119 68.3163C130.865 66.5499 131.732 65.0337 131.732 63.7797C131.732 62.3811 131.22 61.2125 130.196 60.2738C130.248 59.8008 130.367 59.1314 130.564 58.2577C130.793 57.2205 130.99 56.6496 131.161 56.5445C131.745 57.3913 132.192 57.9299 132.487 58.1598C132.96 58.5205 133.636 58.6979 134.503 58.6979C135.265 58.6979 136.23 58.4876 137.411 58.0679C137.962 55.7832 138.481 54.1153 138.968 53.0649C139.67 51.5349 140.72 50.1502 142.106 48.8896C142.716 48.3378 143.655 47.7604 144.922 47.156C146.183 46.5589 147.115 46.2567 147.719 46.2567C147.909 46.2567 148.008 46.3355 148.008 46.5063ZM145.933 50.3335L145.834 50.1239C144.003 50.478 142.315 51.3779 140.773 52.8152C139.111 54.3649 138.212 56.0196 138.081 57.7788C139.302 57.2408 140.806 56.1635 142.604 54.562C144.58 52.7955 145.69 51.3845 145.933 50.3335Z" fill="#424242"/>
</g>
<mask id="mask4_149_59" style="mask-type:luminance" maskUnits="userSpaceOnUse" x="163" y="84" width="8" height="5">
<path d="M163.719 84.4078H170.842V88.9821H163.719V84.4078Z" fill="white"/>
</mask>
<g mask="url(#mask4_149_59)">
<path d="M167.175 86.7398C167.139 86.9335 167.077 87.1545 166.987 87.4024C166.897 87.6502 166.802 87.8857 166.701 88.1083C166.6 88.3314 166.507 88.5179 166.421 88.6688C166.335 88.8198 166.277 88.895 166.249 88.895C166.155 88.895 166.035 88.8646 165.887 88.8033C165.74 88.7425 165.579 88.6632 165.403 88.5663C165.226 88.4694 165.049 88.3602 164.869 88.2376C164.689 88.1155 164.522 87.9918 164.367 87.8661C164.213 87.7404 164.082 87.6177 163.974 87.4992C163.867 87.3807 163.799 87.2787 163.77 87.1922C163.77 87.1494 163.811 87.0237 163.893 86.815C163.976 86.6068 164.071 86.3807 164.179 86.1359C164.287 85.8917 164.398 85.6655 164.513 85.4573C164.628 85.2487 164.718 85.123 164.783 85.0802C164.898 85.2095 165.049 85.3548 165.235 85.5166C165.422 85.6784 165.627 85.836 165.85 85.9906C166.072 86.1452 166.299 86.291 166.529 86.427C166.759 86.5636 166.975 86.6682 167.175 86.7398ZM168.296 84.4114C168.591 84.7783 168.955 85.1049 169.39 85.3924C169.825 85.6799 170.265 85.9061 170.711 86.0715C170.56 86.4667 170.425 86.797 170.306 87.0628C170.188 87.3287 170.086 87.5425 169.999 87.7043C169.913 87.8656 169.843 87.9825 169.789 88.0542C169.735 88.1263 169.698 88.1624 169.676 88.1624C169.618 88.1624 169.529 88.1392 169.406 88.0923C169.284 88.0454 169.144 87.9789 168.986 87.8929C168.828 87.8063 168.661 87.7079 168.485 87.5966C168.308 87.4848 168.142 87.3663 167.983 87.2406C167.825 87.1149 167.686 86.9819 167.563 86.8418C167.441 86.7017 167.355 86.5672 167.304 86.4378C167.304 86.3874 167.339 86.2745 167.407 86.0983C167.475 85.9221 167.558 85.7263 167.655 85.5109C167.752 85.295 167.858 85.0853 167.973 84.8803C168.088 84.6757 168.196 84.5196 168.296 84.4114Z" fill="#424242"/>
</g>
<mask id="mask5_149_59" style="mask-type:luminance" maskUnits="userSpaceOnUse" x="156" y="90" width="17" height="21">
<path d="M156 90.8287H172.224V110.92H156V90.8287Z" fill="white"/>
</mask>
<g mask="url(#mask5_149_59)">
<path d="M166.571 95.6097C166.571 95.4737 166.589 95.2903 166.626 95.0599C166.661 94.8302 166.706 94.5808 166.76 94.3113C166.814 94.0418 166.873 93.7631 166.938 93.4761C166.995 93.1958 167.046 92.9299 167.089 92.6785C167.19 92.1396 167.362 91.7104 167.606 91.3904C167.85 91.071 168.21 90.9107 168.684 90.9107C169.05 90.9107 169.395 91.0241 169.719 91.2503C170.042 91.4765 170.344 91.7804 170.624 92.1612C170.868 92.5492 171.085 92.9624 171.276 93.4004C171.466 93.8388 171.628 94.3149 171.761 94.8286C171.894 95.3423 171.996 95.9029 172.068 96.5098C172.14 97.1173 172.176 97.7799 172.176 98.4981C172.176 99.7703 172.012 101.013 171.686 102.227C171.359 103.442 170.832 104.591 170.106 105.676C169.553 106.502 168.943 107.241 168.274 107.891C167.606 108.542 166.904 109.093 166.167 109.546C165.431 109.998 164.671 110.343 163.888 110.581C163.104 110.818 162.325 110.936 161.549 110.936C160.802 110.936 160.096 110.789 159.431 110.494C158.767 110.199 158.183 109.776 157.68 109.222C157.177 108.669 156.778 107.996 156.484 107.202C156.189 106.408 156.038 105.511 156.031 104.513C156.031 103.276 156.259 102.006 156.715 100.702C157.171 99.3983 157.906 98.0885 158.919 96.7742C159.163 96.465 159.377 96.2079 159.561 96.0034C159.743 95.7988 159.903 95.6334 160.04 95.5077C160.176 95.382 160.288 95.2918 160.374 95.2382C160.46 95.1841 160.529 95.1573 160.579 95.1573C160.622 95.1573 160.665 95.1645 160.708 95.179C160.751 95.1934 160.773 95.2217 160.773 95.265C160.773 95.366 160.73 95.4587 160.644 95.5453C159.961 96.3285 159.397 97.072 158.952 97.7763C158.506 98.4806 158.152 99.1504 157.89 99.7862C157.627 100.422 157.442 101.026 157.335 101.597C157.227 102.168 157.173 102.716 157.173 103.24C157.173 103.88 157.284 104.466 157.507 104.997C157.73 105.529 158.035 105.985 158.423 106.366C158.811 106.747 159.273 107.043 159.808 107.255C160.343 107.467 160.924 107.573 161.549 107.573C162.267 107.573 162.955 107.483 163.613 107.304C164.27 107.124 164.904 106.867 165.515 106.533C166.126 106.199 166.713 105.789 167.277 105.304C167.841 104.82 168.389 104.268 168.921 103.65C169.273 103.248 169.596 102.824 169.891 102.378C170.185 101.933 170.44 101.477 170.656 101.009C170.872 100.543 171.039 100.069 171.157 99.5868C171.276 99.1056 171.335 98.6208 171.335 98.1318C171.335 97.9597 171.304 97.7799 171.244 97.5929C171.182 97.4064 171.069 97.2265 170.904 97.0539H170.818C170.437 97.3342 170.078 97.5264 169.74 97.6305C169.402 97.7351 169.072 97.7871 168.748 97.7871C168.331 97.7871 167.985 97.7047 167.708 97.5393C167.431 97.3739 167.209 97.1766 167.04 96.9462C166.871 96.7164 166.751 96.4774 166.679 96.2295C166.607 95.9817 166.571 95.7751 166.571 95.6097Z" fill="#424242"/>
</g>
<mask id="mask6_149_59" style="mask-type:luminance" maskUnits="userSpaceOnUse" x="175" y="97" width="15" height="14">
<path d="M175 97.4078H190V110.487H175V97.4078Z" fill="white"/>
</mask>
<g mask="url(#mask6_149_59)">
<path fill-rule="evenodd" clip-rule="evenodd" d="M183.278 99.8888L183.091 99.6363L184.242 97.414L186.829 99.2766L186.482 99.9878C186.482 99.9878 188.451 101.482 189.148 102.403C189.845 103.322 190.425 104.746 189.291 106.356C188.585 107.595 188.574 108.095 187.596 108.189C186.618 108.283 185.034 107.48 184.505 107.245C184.037 107.552 181.967 108.696 180.365 109.291C178.763 109.886 177.064 110.45 175.414 110.489C174.321 110.516 175.549 109.862 177.473 109.184C180.382 108.159 182.511 106.456 182.511 106.456C182.511 106.456 180.736 105.528 181.124 103.873C181.572 101.959 182.66 100.134 183.278 99.8888ZM185.381 104.769C185.381 104.769 186.208 103.321 186.311 103.031C186.643 103.282 188.669 105.111 188.586 105.632C188.516 106.079 186.608 105.21 185.381 104.769ZM184.943 104.458C184.943 104.458 184.247 104.499 182.953 103.719C182.338 103.347 182.128 102.811 182.42 102.276C182.735 101.7 183.606 101.222 184.089 101.779C184.895 102.711 184.943 104.458 184.943 104.458Z" fill="#424242"/>
</g>
</svg>
