<svg width="440" height="267" viewBox="0 0 440 267" fill="none" xmlns="http://www.w3.org/2000/svg">
<g clip-path="url(#clip0_179_78)">
<path d="M349.544 40.7717C352.487 39.3126 356.303 41.0129 358.066 44.5694C359.073 46.602 359.189 48.799 358.557 50.5826L358.597 50.6635L370.165 71.2562L390.865 60.373C394.745 57.9823 399.42 57.3383 402.123 61.0084C405.472 65.5561 403.705 72.0377 398.513 74.2579L371.502 85.8059C367.665 87.4465 363.224 85.6616 361.59 81.8215L351.895 53.8849C350.093 53.3082 348.415 51.8857 347.407 49.8532C345.644 46.2967 346.601 42.2308 349.544 40.7717Z" fill="#9B616A"/>
<path d="M399.415 54.209L375.563 66.0777L384.601 83.5948L408.611 69.4092" fill="#CACACB"/>
<path d="M373.283 246.201H364.339V257.99H373.283V246.201Z" fill="#9B616A"/>
<path d="M371.756 266.126H352.743C351.118 266.126 349.485 265.754 348.021 265.05L344.516 263.365C343.791 263.017 343.323 262.272 343.323 261.468C343.323 260.525 343.957 259.691 344.866 259.439L352.097 257.438L364.468 250.936L364.477 250.983C364.708 252.155 365.067 253.925 365.112 254.032C366.381 255.485 367.684 256.155 368.986 256.023C371.256 255.793 372.766 253.171 372.781 253.145L372.792 253.124L372.815 253.127C373.347 253.182 373.74 253.396 373.984 253.764C374.502 254.545 374.186 255.748 374.134 255.929C374.754 256.536 375.033 259.925 375.054 260.199C375.951 261.149 376.377 262.063 376.321 262.915C376.271 263.66 375.858 264.351 375.093 264.971C374.173 265.716 372.988 266.126 371.756 266.126Z" fill="#090814"/>
<path d="M432.274 240.824L423.686 243.323L426.979 254.642L435.567 252.144L432.274 240.824Z" fill="#9B616A"/>
<path d="M436.374 260.383L418.118 265.693C416.558 266.147 414.886 266.246 413.283 265.979L409.447 265.341C408.653 265.209 407.996 264.624 407.771 263.852C407.508 262.947 407.884 261.968 408.687 261.473L415.071 257.532L425.133 247.833L425.155 247.875C425.704 248.936 426.543 250.535 426.617 250.626C428.241 251.667 429.679 251.946 430.892 251.456C433.008 250.6 433.725 247.661 433.732 247.632L433.737 247.609L433.76 247.605C434.286 247.509 434.723 247.605 435.06 247.89C435.776 248.496 435.808 249.739 435.809 249.927C436.574 250.337 437.788 253.513 437.885 253.77C439.012 254.432 439.676 255.191 439.86 256.024C440.021 256.753 439.817 257.532 439.256 258.341C438.58 259.313 437.557 260.039 436.374 260.383Z" fill="#090814"/>
<path d="M406.804 34.3394C406.804 26.3086 400.294 19.7983 392.263 19.7983C384.232 19.7983 377.722 26.3086 377.722 34.3394C377.722 40.8524 382.004 46.3645 387.907 48.2157L390.718 66.7933L405.048 54.8514C405.048 54.8514 401.952 50.9081 400.292 46.4619C404.216 43.8579 406.804 39.4017 406.804 34.3394Z" fill="#9B616A"/>
<path d="M412.541 106.108L414.64 76.7214C414.822 74.1729 414.5 71.6135 413.692 69.1897L407.472 50.5298L389.15 56.4148L381.419 74.1018L377.208 81.8212C375.291 85.3355 375.919 89.6925 378.749 92.5231L381.419 95.1927L377.697 108.839L378.089 108.826L377.561 108.893C377.561 108.893 352.688 183.732 353.579 247.377H385.508L387.404 173.495L392.95 250.244L435.026 247.822L412.541 106.108Z" fill="#CACACB"/>
<path d="M411.472 53.4448C411.472 53.4448 410.793 58.5965 404.502 58.7647C395.995 58.9923 391.741 59.106 391.741 59.106C391.741 59.106 402.529 32.8525 398.093 35.8101C393.657 38.7678 381.828 26.3684 381.828 26.3684L378.338 32.9144C378.338 32.9144 369.999 29.8948 379.241 22.5007C379.241 22.5007 390.267 13.9761 401.972 19.0951C413.678 24.2141 411.472 53.4448 411.472 53.4448Z" fill="#090814"/>
<path d="M359.866 111.901C359.696 108.62 362.772 105.794 366.736 105.59C369.002 105.473 371.064 106.239 372.45 107.528L372.54 107.523L396.034 105.09L394.271 81.77C393.619 77.259 394.885 72.7132 399.327 71.6912C404.831 70.4249 410.077 74.6209 410.052 80.2685L409.917 109.644C409.898 113.817 406.495 117.183 402.322 117.157L372.833 114.953C371.588 116.378 369.616 117.353 367.35 117.47C363.386 117.675 360.035 115.181 359.866 111.901Z" fill="#9B616A"/>
<path d="M392.011 71.4744L393.426 98.0787L413.092 96.7448L409.614 69.075" fill="#CACACB"/>
<path d="M360.56 33.3667H247.999C244.901 33.3667 242.39 35.8784 242.39 38.9767C242.39 42.075 244.901 44.5866 247.999 44.5866H360.56C363.658 44.5866 366.17 42.075 366.17 38.9767C366.17 35.8784 363.658 33.3667 360.56 33.3667Z" fill="#746FC6"/>
<path d="M360.56 78.9705H272.249C269.15 78.9705 266.639 81.4821 266.639 84.5804V84.5804C266.639 87.6787 269.15 90.1904 272.249 90.1904H360.56C363.658 90.1904 366.17 87.6787 366.17 84.5804C366.17 81.4821 363.658 78.9705 360.56 78.9705Z" fill="#746FC6"/>
<path d="M343.911 108.648H360.56C363.658 108.648 366.17 111.16 366.17 114.258C366.17 117.357 363.658 119.868 360.56 119.868H343.911C340.813 119.868 338.301 117.357 338.301 114.258C338.301 111.16 340.813 108.648 343.911 108.648Z" fill="#746FC6"/>
<path d="M253.322 64.4929H169.354C166.256 64.4929 163.744 67.0046 163.744 70.1029V70.1029C163.744 73.2012 166.256 75.7128 169.354 75.7128H253.322C256.42 75.7128 258.932 73.2012 258.932 70.1029C258.932 67.0046 256.42 64.4929 253.322 64.4929Z" fill="#CACACB"/>
<path d="M169.354 93.4478H193.965C197.063 93.4478 199.575 95.9594 199.575 99.0577C199.575 102.156 197.063 104.668 193.965 104.668H169.354C166.256 104.668 163.744 102.156 163.744 99.0577C163.744 95.9594 166.256 93.4478 169.354 93.4478Z" fill="#CACACB"/>
<path d="M360.56 49.292H280.211C277.113 49.292 274.601 51.8037 274.601 54.902V54.902C274.601 58.0003 277.113 60.5119 280.211 60.5119H360.56C363.658 60.5119 366.17 58.0003 366.17 54.902C366.17 51.8037 363.658 49.292 360.56 49.292Z" fill="#746FC6"/>
<path d="M72.577 237.434L80.0013 242.908L85.4746 235.483L78.0504 230.01L72.577 237.434Z" fill="#E8989B"/>
<path d="M66.8021 242.12C66.5461 241.138 66.6265 240.311 67.0412 239.663C67.5156 238.921 68.4286 238.424 69.7547 238.183C69.9399 237.97 72.2449 235.327 73.1311 235.203C73.1989 235.02 73.6727 233.829 74.5804 233.497C75.0081 233.341 75.4657 233.404 75.9407 233.684L75.9613 233.696L75.9585 233.72C75.9547 233.751 75.6032 236.85 77.3469 238.431C78.3466 239.337 79.8381 239.578 81.7804 239.148C81.884 239.087 83.2647 237.837 84.1737 237.006L84.2101 236.973L90.4993 249.94L95.277 256.026C95.8775 256.791 95.8939 257.872 95.3168 258.655C94.8248 259.322 93.9804 259.654 93.1657 259.499L89.2253 258.753C87.5788 258.441 85.9956 257.751 84.6468 256.756L68.8654 245.122C67.8429 244.368 67.1102 243.302 66.8021 242.12Z" fill="#090814"/>
<path d="M156.862 258.602H166.086V249.379H156.862V258.602Z" fill="#E8989B"/>
<path d="M154.995 265.801C154.206 265.162 153.78 264.449 153.729 263.681C153.671 262.803 154.11 261.86 155.035 260.88C155.057 260.598 155.344 257.103 155.984 256.477C155.93 256.29 155.604 255.05 156.139 254.245C156.39 253.865 156.796 253.644 157.344 253.587L157.368 253.585L157.38 253.606C157.395 253.633 158.952 256.337 161.293 256.574C162.635 256.71 163.979 256.019 165.287 254.521C165.334 254.41 165.704 252.585 165.943 251.376L165.952 251.328L178.709 258.034L186.166 260.097C187.103 260.356 187.758 261.217 187.758 262.189C187.758 263.018 187.275 263.786 186.528 264.145L182.913 265.883C181.403 266.609 179.719 266.993 178.043 266.993H158.436C157.166 266.993 155.944 266.569 154.995 265.801Z" fill="#090814"/>
<path d="M109.878 102.976H154.084L168.819 250.56H154.084L131.368 155.859L124.613 182.578L87.4119 240.946L72.7598 226.678L104.353 176.768L109.878 102.976Z" fill="#090814"/>
<path d="M123.158 19.7593C123.158 11.4777 129.872 4.76416 138.153 4.76416C146.435 4.76416 153.148 11.4777 153.148 19.7593C153.148 26.4757 148.732 32.1601 142.646 34.0691L139.747 53.2268L124.969 40.9119C124.969 40.9119 128.162 36.8456 129.874 32.2605C125.827 29.575 123.158 24.9797 123.158 19.7593Z" fill="#E8989B"/>
<path d="M130.289 32.7172C130.289 32.7172 127.43 18.2512 131.562 19.973C135.695 21.6949 134.589 24.6057 134.589 24.6057L138.549 18.7514V12.0362L141.132 9.10904L152.152 13.758C152.152 13.758 158.006 -3.46046 141.304 2.04945C141.304 2.04945 127.013 -3.80484 122.881 6.35408C113.083 29.2389 130.289 32.7172 130.289 32.7172Z" fill="#090814"/>
<path d="M110.03 103.948L149.218 104.122C152.481 104.287 155.171 102.348 154.862 100.055L147.436 45.0265L134.156 38.0663C131.355 36.5979 127.922 37.1411 125.71 39.4027L117.841 47.4507C115.777 49.5616 114.45 51.9861 113.97 54.5265L110.296 90.958C110.055 92.2353 110.262 93.5348 110.899 94.7426L112.341 97.4732C113.868 100.368 105.655 103.728 110.03 103.948Z" fill="#C8D4F7"/>
<path d="M157.561 110.497L145.419 102.507L150.085 95.4177L162.227 103.408C164.335 102.939 166.808 103.375 168.971 104.799C172.756 107.289 174.153 111.848 172.092 114.98C170.031 118.112 165.292 118.632 161.507 116.142C159.344 114.718 157.965 112.619 157.561 110.497Z" fill="#E8989B"/>
<path d="M120.906 63.8813L124.718 94.1066L149.569 109.585L160.823 98.5334L136.622 85.4215L140.258 49.7617" fill="#C8D4F7"/>
</g>
<defs>
<clipPath id="clip0_179_78">
<rect width="440" height="266.622" fill="white" transform="translate(0 0.371094)"/>
</clipPath>
</defs>
</svg>
