<svg width="28" height="28" viewBox="0 0 28 28" fill="none" xmlns="http://www.w3.org/2000/svg">
<path d="M1.13867 25.0459C1.13867 20.0159 5.21632 15.9382 10.2464 15.9382C15.2764 15.9382 19.3541 20.0159 19.3541 25.0459H17.0771C17.0771 21.2734 14.0189 18.2152 10.2464 18.2152C6.47383 18.2152 3.4156 21.2734 3.4156 25.0459H1.13867ZM10.2464 14.7998C6.47236 14.7998 3.4156 11.743 3.4156 7.96904C3.4156 4.19504 6.47236 1.13827 10.2464 1.13827C14.0204 1.13827 17.0771 4.19504 17.0771 7.96904C17.0771 11.743 14.0204 14.7998 10.2464 14.7998ZM10.2464 12.5229C12.7624 12.5229 14.8002 10.485 14.8002 7.96904C14.8002 5.45304 12.7624 3.41519 10.2464 3.41519C7.73036 3.41519 5.69252 5.45304 5.69252 7.96904C5.69252 10.485 7.73036 12.5229 10.2464 12.5229ZM24.5313 0.891846C25.5898 3.02412 26.1848 5.42709 26.1848 7.96904C26.1848 10.511 25.5898 12.9139 24.5313 15.0463L22.6587 13.6842C23.4606 11.9454 23.9079 10.0095 23.9079 7.96904C23.9079 5.92857 23.4606 3.99259 22.6587 2.25382L24.5313 0.891846ZM20.7729 3.62522C21.3259 4.96377 21.631 6.43077 21.631 7.96904C21.631 9.50729 21.3259 10.9743 20.7729 12.3128L18.8638 10.9244C19.1816 9.99768 19.3541 9.0035 19.3541 7.96904C19.3541 6.93456 19.1816 5.94038 18.8638 5.01366L20.7729 3.62522Z" fill="white"/>
</svg>
