<svg width="541" height="378" viewBox="0 0 541 378" fill="none" xmlns="http://www.w3.org/2000/svg">
<g clip-path="url(#clip0_179_40)">
<path d="M325.789 58.5773L344.725 64.8031V37.5413H327.542L325.789 58.5773Z" fill="#F8A8AB"/>
<path d="M342.381 45.083C352.803 45.083 361.251 36.6347 361.251 26.2133C361.251 15.792 352.803 7.34375 342.381 7.34375C331.96 7.34375 323.512 15.792 323.512 26.2133C323.512 36.6347 331.96 45.083 342.381 45.083Z" fill="#F8A8AB"/>
<path d="M337.575 27.6925L340.178 30.8498L344.881 22.6128C344.881 22.6128 350.884 22.9234 350.884 18.4648C350.884 14.0062 356.393 13.8805 356.393 13.8805C356.393 13.8805 364.194 0.260642 348.038 3.84675C348.038 3.84675 336.828 -3.82826 331.261 2.73025C331.261 2.73025 314.173 11.3369 319.061 26.3173L327.187 41.7634L329.028 38.266C329.028 38.266 327.911 23.5889 337.575 27.6778V27.6925Z" fill="#2F2E43"/>
<path d="M335.594 341.518H320.111V363.486H335.594V341.518Z" fill="#F8A8AB"/>
<path d="M333.878 376.07C331.231 376.307 317.981 377.357 317.315 374.318C316.709 371.53 317.604 368.617 317.73 368.218C319.001 355.544 319.475 355.404 319.763 355.322C320.214 355.189 321.53 355.818 323.667 357.193L323.8 357.282L323.83 357.437C323.867 357.637 324.813 362.288 329.301 361.57C332.377 361.082 333.375 360.402 333.693 360.069C333.434 359.951 333.109 359.744 332.88 359.389C332.547 358.872 332.488 358.206 332.71 357.408C333.287 355.3 335.017 352.187 335.091 352.062L335.29 351.707L352.888 363.582L363.757 366.687C364.578 366.924 365.236 367.508 365.569 368.292C366.027 369.386 365.746 370.658 364.859 371.456C362.885 373.231 358.966 376.27 354.848 376.647C353.753 376.75 352.304 376.787 350.677 376.787C343.882 376.787 333.959 376.085 333.886 376.07H333.878Z" fill="#2F2E43"/>
<path d="M355.365 152.127L314.75 150.049C314.75 150.049 308.524 173.651 316.391 198.243L317.338 346.339H340.289L361.924 193.57L355.365 152.127Z" fill="#2F2E43"/>
<path d="M348.518 53.3346L326.225 41.5042C326.225 41.5042 302.202 76.6111 305.522 95.6285C308.849 114.646 314.75 150.049 314.75 150.049L363.927 152.126L355.343 82.408L348.518 53.3346Z" fill="#E2E3E4"/>
<path d="M346.61 341.518H331.127V363.486H346.61V341.518Z" fill="#F8A8AB"/>
<path d="M344.895 376.07C342.248 376.307 328.998 377.357 328.332 374.318C327.726 371.53 328.621 368.617 328.746 368.218C330.018 355.544 330.491 355.404 330.78 355.322C331.231 355.189 332.547 355.818 334.684 357.193L334.817 357.282L334.846 357.437C334.883 357.637 335.83 362.288 340.318 361.57C343.394 361.082 344.392 360.402 344.71 360.069C344.451 359.951 344.126 359.744 343.897 359.389C343.564 358.872 343.505 358.206 343.727 357.408C344.303 355.3 346.034 352.187 346.107 352.062L346.307 351.707L363.905 363.582L374.774 366.687C375.595 366.924 376.253 367.508 376.586 368.292C377.044 369.386 376.763 370.658 375.876 371.456C373.902 373.231 369.983 376.27 365.864 376.647C364.77 376.75 363.321 376.787 361.694 376.787C354.899 376.787 344.976 376.085 344.902 376.07H344.895Z" fill="#2F2E43"/>
<path d="M363.927 152.127L314.75 150.049C314.75 150.049 308.524 173.651 316.391 198.243L325.9 346.339H348.851L370.486 193.57L363.927 152.127Z" fill="#2F2E43"/>
<path d="M358.796 248.856C355.358 248.856 351.609 248.013 347.905 247.185C345.161 246.571 342.744 246.416 340.806 246.297C337.864 246.112 335.534 245.965 334.241 244.242C332.961 242.541 332.961 239.65 334.241 233.949C335.941 226.378 339.727 214.281 344.356 204.329C350.337 191.493 356.082 185.585 361.443 186.79C368.623 188.402 371.484 200.388 372.556 207.382C374.05 217.15 373.917 228.759 372.231 236.271C369.998 246.216 364.874 248.848 358.789 248.848H358.796V248.856ZM360.105 188.868C356.164 188.868 351.328 194.62 346.374 205.268C341.812 215.065 338.085 226.977 336.407 234.437C335.335 239.229 335.217 241.839 336.015 242.911C336.695 243.813 338.477 243.931 340.94 244.079C342.958 244.205 345.472 244.36 348.385 245.018C359.964 247.613 367.203 248.56 370.065 235.79C373.133 222.111 370.797 191.167 360.955 188.956C360.674 188.89 360.386 188.86 360.097 188.86H360.105V188.868Z" fill="#DFDFE0"/>
<path d="M405.622 340.8L295.34 341.525L278.208 333.643L288.19 231.82L298.231 232.33L401.548 237.587L405.622 340.8Z" fill="#746FC6"/>
<path opacity="0.2" d="M295.34 341.525L278.208 333.643L288.19 231.82L298.231 232.33L295.34 341.525Z" fill="#272223"/>
<path d="M360.459 230.075C358.411 230.075 356.171 229.572 353.967 229.076C352.333 228.707 350.891 228.618 349.73 228.544C347.978 228.433 346.588 228.344 345.819 227.317C345.057 226.304 345.057 224.581 345.819 221.18C346.832 216.662 349.087 209.453 351.852 203.523C355.416 195.87 358.847 192.35 362.041 193.067C366.323 194.029 368.031 201.171 368.666 205.349C369.554 211.175 369.48 218.096 368.474 222.57C367.143 228.5 364.09 230.067 360.459 230.067V230.075ZM361.243 194.31C358.892 194.31 356.008 197.74 353.058 204.092C350.337 209.933 348.111 217.032 347.12 221.483C346.477 224.337 346.41 225.897 346.891 226.533C347.298 227.073 348.355 227.139 349.826 227.228C351.032 227.302 352.525 227.398 354.263 227.79C361.161 229.335 365.48 229.897 367.188 222.289C369.014 214.133 367.624 195.685 361.76 194.369C361.59 194.332 361.42 194.31 361.25 194.31H361.243Z" fill="#DFDFE0"/>
<path d="M388.373 284.902L322.625 285.331L312.406 280.635L318.358 219.923L324.348 220.226L385.947 223.361L388.373 284.902Z" fill="#E2E3E4"/>
<path opacity="0.2" d="M322.625 285.331L312.406 280.635L318.358 219.923L324.348 220.226L322.625 285.331Z" fill="#272223"/>
<path d="M364.305 189.097C365.406 194.509 363.388 199.456 359.809 200.143C356.23 200.831 352.437 196.993 351.343 191.581C350.877 189.422 350.951 187.189 351.557 185.059L347.202 162.057L358.456 160.275L361.554 183.137C362.952 184.882 363.891 186.923 364.305 189.097Z" fill="#F8A8AB"/>
<path d="M320.162 52.9062C320.162 52.9062 336.621 50.821 338.588 55.7381C340.555 60.6551 363.669 177.695 363.669 177.695H348.422L320.162 52.9062Z" fill="#E2E3E4"/>
<path d="M205.806 77.9571L189.273 83.3917V59.5977H204.275L205.806 77.9571Z" fill="#F8A8AB"/>
<path d="M191.32 66.1854C200.419 66.1854 207.794 58.8098 207.794 49.7115C207.794 40.6132 200.419 33.2375 191.32 33.2375C182.222 33.2375 174.847 40.6132 174.847 49.7115C174.847 58.8098 182.222 66.1854 191.32 66.1854Z" fill="#F8A8AB"/>
<path d="M195.846 48.0775C193.088 47.9962 191.276 45.2086 190.204 42.6651C189.132 40.1215 188.03 37.2009 185.472 36.1509C183.38 35.2932 179.69 41.0975 178.041 39.5522C176.318 37.9403 177.997 29.6663 179.823 28.1801C181.649 26.6939 184.149 26.4056 186.5 26.2947C192.238 26.0285 198.012 26.4943 203.639 27.6699C207.122 28.3946 210.701 29.4889 213.214 32.0029C216.394 35.1971 217.207 40.0106 217.437 44.5136C217.673 49.1201 217.407 53.941 215.167 57.9707C212.926 62.0005 208.238 64.9729 203.743 63.9451C203.292 61.5051 203.75 58.9985 203.928 56.5141C204.098 54.0371 203.92 51.3605 202.404 49.3863C200.889 47.412 197.657 46.6283 195.898 48.3807" fill="#2F2E43"/>
<path d="M216.113 53.7862C217.762 52.581 219.736 51.568 221.762 51.8194C223.95 52.0856 225.806 53.8897 226.368 56.0266C226.93 58.1635 226.302 60.5148 224.941 62.2598C223.588 64.0048 221.57 65.1582 219.44 65.735C218.205 66.0677 216.852 66.2082 215.677 65.7054C213.946 64.9586 213.007 62.7478 213.688 60.988" fill="#2F2E43"/>
<path d="M200.349 342.738H184.865V364.705H200.349V342.738Z" fill="#F8A8AB"/>
<path d="M169.781 378C168.154 378 166.705 377.963 165.611 377.859C161.5 377.482 157.574 374.443 155.599 372.669C154.712 371.87 154.431 370.598 154.89 369.504C155.222 368.72 155.88 368.129 156.701 367.9L167.57 364.794L185.168 352.919L185.368 353.274C185.442 353.407 187.172 356.52 187.749 358.62C187.971 359.419 187.911 360.084 187.579 360.602C187.349 360.957 187.024 361.164 186.765 361.282C187.083 361.615 188.081 362.295 191.157 362.783C195.646 363.493 196.592 358.842 196.629 358.65L196.659 358.494L196.792 358.406C198.928 357.03 200.245 356.402 200.696 356.535C200.977 356.616 201.45 356.764 202.729 369.43C202.855 369.829 203.749 372.743 203.143 375.53C202.485 378.562 189.235 377.519 186.58 377.283C186.506 377.29 176.584 378 169.789 378H169.781Z" fill="#2F2E43"/>
<path d="M244.436 325.464L231.299 333.658L242.924 352.298L256.061 344.104L244.436 325.464Z" fill="#F8A8AB"/>
<path d="M226.983 374.991C225.164 374.991 223.493 374.769 222.302 374.562C221.134 374.355 220.217 373.423 220.025 372.255C219.892 371.412 220.136 370.562 220.713 369.933L228.292 361.548L236.943 342.161L237.298 342.353C237.431 342.427 240.544 344.15 242.148 345.629C242.762 346.191 243.065 346.79 243.05 347.403C243.043 347.832 242.88 348.172 242.717 348.416C243.161 348.535 244.366 348.579 247.235 347.366C251.42 345.599 249.764 341.148 249.69 340.963L249.631 340.815L249.697 340.675C250.784 338.375 251.561 337.148 252.019 337.022C252.307 336.941 252.781 336.815 260.567 346.893C260.885 347.159 263.184 349.163 264.145 351.847C265.188 354.768 253.394 360.898 251.021 362.095C250.947 362.155 238.606 371.124 233.534 373.674C231.523 374.687 229.142 374.998 226.975 374.998L226.983 374.991Z" fill="#2F2E43"/>
<path d="M211.75 159.032H168.399L164.466 199.359L181.679 348.364H203.809L194.959 262.305L230.857 340.001L250.525 326.234L222.494 253.698C222.494 253.698 232.506 190.509 224.638 174.767C216.771 159.025 211.75 159.032 211.75 159.032Z" fill="#2F2E43"/>
<path d="M233.312 161.488H164.466L185.117 72.478H215.115L233.312 161.488Z" fill="#9F3E99"/>
<path d="M147.363 70.7258C146.262 65.3133 148.28 60.3667 151.859 59.6791C155.438 58.9914 159.231 62.8289 160.325 68.2414C160.791 70.4004 160.717 72.6334 160.111 74.7629L164.466 97.7658L153.212 99.5478L150.114 76.6854C148.717 74.9404 147.778 72.8996 147.363 70.7258Z" fill="#F8A8AB"/>
<path d="M214.383 72.4781H187.928L170.093 108.147L163.365 81.4175L148.584 82.985C148.584 82.985 152.081 135.209 167.365 133.442C182.648 131.675 218.295 84.6265 214.376 72.4707H214.383V72.4781Z" fill="#9F3E99"/>
<path d="M239.368 241.661C237.32 241.661 235.079 241.158 232.876 240.663C231.242 240.293 229.8 240.204 228.639 240.13C226.887 240.02 225.496 239.931 224.727 238.903C223.966 237.89 223.966 236.167 224.727 232.766C225.74 228.248 227.996 221.039 230.761 215.109C234.325 207.456 237.756 203.937 240.95 204.654C245.231 205.615 246.939 212.758 247.575 216.935C248.462 222.762 248.388 229.683 247.383 234.156C246.052 240.086 242.998 241.654 239.368 241.654V241.661ZM240.151 205.896C237.8 205.896 234.916 209.327 231.966 215.678C229.245 221.52 227.02 228.618 226.029 233.069C225.386 235.923 225.319 237.483 225.8 238.119C226.206 238.659 227.264 238.726 228.735 238.814C229.94 238.888 231.434 238.984 233.171 239.376C240.07 240.922 244.388 241.484 246.096 233.875C247.923 225.72 246.532 207.271 240.669 205.955C240.499 205.918 240.329 205.896 240.159 205.896H240.151Z" fill="#DFDFE0"/>
<path d="M267.287 296.481L201.539 296.91L191.321 292.214L197.273 231.502L203.262 231.805L264.862 234.94L267.287 296.481Z" fill="#E2E3E4"/>
<path opacity="0.2" d="M201.539 296.91L191.321 292.214L197.273 231.502L203.262 231.805L201.539 296.91Z" fill="#272223"/>
<path d="M243.922 208.122C245.024 213.534 243.006 218.481 239.427 219.168C235.848 219.856 232.055 216.018 230.961 210.606C230.495 208.447 230.569 206.214 231.175 204.084L226.82 181.082L238.074 179.3L241.172 202.162C242.569 203.907 243.508 205.948 243.922 208.122Z" fill="#F8A8AB"/>
<path d="M199.299 72.4779C199.299 72.4779 214.331 71.842 215.115 72.4779C219.218 75.8274 243.286 196.727 243.286 196.727H228.04L199.299 72.4779Z" fill="#9F3E99"/>
</g>
<defs>
<clipPath id="clip0_179_40">
<rect width="541" height="377.924" fill="white" transform="translate(0 0.0756836)"/>
</clipPath>
</defs>
</svg>
