<svg width="330" height="189" viewBox="0 0 330 189" fill="none" xmlns="http://www.w3.org/2000/svg">
<g clip-path="url(#clip0_149_2)">
<path d="M292.788 187.718L295.423 187.778L279.536 102.906L276.901 103.403L281.049 125.42H267.684L271.832 103.403L269.198 102.906L253.443 187.778L255.945 187.718L264.228 143.761H284.505L292.788 187.718ZM264.842 140.5L267.069 128.68H281.664L283.891 140.5H264.842Z" fill="#CACACA"/>
<path d="M120.69 87.6642L119.039 86.9688L117.906 78.689H102.817L101.589 86.9349L100.111 87.6738C100.041 87.7091 99.984 87.7673 99.9505 87.8389C99.9171 87.9105 99.9087 87.9913 99.9269 88.0682C99.945 88.1452 99.9886 88.2137 100.051 88.2627C100.113 88.3118 100.189 88.3385 100.268 88.3385H120.554C120.635 88.3385 120.714 88.3105 120.776 88.2592C120.839 88.2079 120.882 88.1365 120.898 88.0571C120.914 87.9777 120.902 87.8952 120.864 87.8235C120.826 87.7519 120.765 87.6957 120.69 87.6642Z" fill="#E6E6E6"/>
<path d="M220.634 33.844C221.285 33.7503 221.947 33.8004 222.576 33.9906C223.205 34.1808 223.785 34.5065 224.274 34.9449C224.763 35.3833 225.15 35.9236 225.408 36.5278C225.666 37.132 225.788 37.7854 225.766 38.4419L240.669 44.1783L233.917 49.0023L220.8 42.8154C219.7 42.7054 218.678 42.1955 217.928 41.3824C217.178 40.5692 216.753 39.5093 216.733 38.4035C216.712 37.2976 217.098 36.2227 217.817 35.3823C218.536 34.542 219.539 33.9947 220.634 33.844Z" fill="#9E616A"/>
<path d="M277.22 31.0282L279.741 35.6121C279.132 38.5194 277.558 41.1352 275.273 43.0342C271.413 46.2897 251.23 58.4145 251.23 58.4145L225.75 45.6228L230.207 39.6995L250.212 46.4037C257.632 39.3963 266.588 34.2193 276.363 31.2854L277.22 31.0282Z" fill="#E4E4E4"/>
<path d="M272.532 106.879C283.515 106.879 292.418 103.978 292.418 100.399C292.418 96.8207 283.515 93.9197 272.532 93.9197C261.55 93.9197 252.647 96.8207 252.647 100.399C252.647 103.978 261.55 106.879 272.532 106.879Z" fill="#CACACA"/>
<path d="M227.921 182.227L222.64 180.767L225.757 159.705L233.551 161.86L227.921 182.227Z" fill="#9E616A"/>
<path d="M227.852 187.718L210.826 183.011L210.885 182.796C211.371 181.038 212.535 179.546 214.121 178.646C215.708 177.747 217.586 177.515 219.344 178L219.344 178L229.744 180.875L227.852 187.718Z" fill="#2F2E41"/>
<path d="M212.61 182.295L207.598 180.082L213.749 159.699L221.146 162.965L212.61 182.295Z" fill="#9E616A"/>
<path d="M211.744 187.718L195.584 180.582L195.674 180.378C196.411 178.71 197.78 177.402 199.48 176.744C201.181 176.085 203.073 176.129 204.741 176.865L204.742 176.865L214.611 181.223L211.744 187.718Z" fill="#2F2E41"/>
<path d="M288.008 84.5573C288.008 84.5573 290.664 92.7873 274.366 103.195L253.376 124.112L231.566 176.283L218.617 170.478L221.157 163.699L222.861 159.151L223.733 156.823L224.667 154.329L238.53 117.327L250.174 96.9389L250.512 85.876L253.376 78.0777L274.155 70.7043L288.008 84.5573Z" fill="#2F2E41"/>
<path d="M277.411 84.965C277.411 84.965 280.068 93.195 263.769 103.603L242.779 124.519L220.969 176.691L208.021 170.886L210.56 164.107L212.264 159.558L213.136 157.231L214.071 154.737L227.933 117.735L231.832 110.908C236.975 101.902 243.225 93.5757 250.436 86.1217L254.258 82.1708L254.665 76.0572L263.558 71.1121L277.411 84.965Z" fill="#2F2E41"/>
<path d="M264.855 44.6743L271.376 30.8169L282.756 29.2645C282.756 29.2645 291.642 40.5856 289.309 56.4938C288.434 62.4594 287.721 68.3986 287.679 73.6118C287.667 74.9989 288.881 75.6183 288.901 76.8724C288.922 78.1043 286.601 80.1109 287.271 80.9481C288.229 82.1019 288.799 83.5278 288.901 85.0238C288.094 86.946 263.65 76.5325 253.376 78.0778L264.855 44.6743Z" fill="#E4E4E4"/>
<path d="M281.018 22.2879C283.923 17.4014 282.316 11.0853 277.43 8.18059C272.543 5.27584 266.227 6.88237 263.323 11.7689C260.418 16.6554 262.024 22.9715 266.911 25.8762C271.797 28.781 278.113 27.1744 281.018 22.2879Z" fill="#9E616A"/>
<path d="M278.751 13.3327C278.732 13.6036 278.705 13.9623 278.673 14.3681C278.641 15.479 278.954 16.5725 279.569 17.4982C280.145 18.472 279.458 24.3539 279.458 24.3539C296.318 12.601 282.996 0.79344 277.785 1.84305C277.894 0.348438 273.643 0.940534 273.643 0.940534C272.024 -1.58144 268.475 1.76627 268.475 1.76627L269.16 0.614097C266.404 1.315 263.68 9.83145 263.68 9.83145C264.615 13.5056 278.86 11.8381 278.751 13.3327Z" fill="#2F2E41"/>
<path d="M213.344 50.1254C219.138 42.4187 223.718 33.8707 226.926 24.7782C227.112 24.2343 227.098 23.6421 226.889 23.1071C226.679 22.572 226.286 22.1288 225.78 21.8564L205.953 11.2329C205.632 11.0598 205.276 10.9621 204.912 10.9473C204.548 10.9325 204.185 11.001 203.852 11.1476C203.512 11.2953 203.21 11.5187 202.969 11.8006C202.729 12.0825 202.555 12.4156 202.463 12.7746C200.155 21.5363 195.818 29.6319 189.801 36.4063C189.553 36.682 189.372 37.0106 189.27 37.3671C189.169 37.7236 189.15 38.0985 189.215 38.4634C189.278 38.8224 189.422 39.1624 189.636 39.4575C189.85 39.7525 190.128 39.9948 190.45 40.166L210.277 50.7894C210.784 51.0599 211.37 51.1415 211.932 51.02C212.494 50.8984 212.994 50.5814 213.344 50.1254Z" fill="#CCCCCC"/>
<path d="M211.991 49.1089C211.885 49.242 211.735 49.3337 211.568 49.3682C211.401 49.4027 211.227 49.3778 211.076 49.2978L191.25 38.6742C191.154 38.624 191.07 38.5522 191.006 38.4644C190.942 38.3766 190.9 38.2752 190.882 38.1682C190.861 38.0552 190.867 37.9389 190.899 37.8285C190.93 37.7181 190.987 37.6166 191.065 37.5319C197.259 30.558 201.725 22.2239 204.1 13.2039C204.128 13.0924 204.181 12.9889 204.255 12.9013C204.329 12.8137 204.422 12.7444 204.528 12.699C204.627 12.6546 204.735 12.6338 204.844 12.6383C204.953 12.6428 205.059 12.6724 205.154 12.7249L224.98 23.3482C225.131 23.4294 225.248 23.5605 225.311 23.7188C225.375 23.8771 225.382 24.0527 225.33 24.2154C222.18 33.1451 217.682 41.5401 211.991 49.1089Z" fill="white"/>
<path d="M205.055 22.8181L218.73 30.8334C220.09 31.6309 221.322 29.5181 219.964 28.7218L206.289 20.7065C204.928 19.909 203.696 22.0218 205.055 22.8181Z" fill="#4741AB"/>
<path d="M202.609 27.3013L216.284 35.3167C217.645 36.1142 218.877 34.0013 217.518 33.2051L203.844 25.1898C202.483 24.3923 201.251 26.5051 202.609 27.3013Z" fill="#4741AB"/>
<path d="M199.757 32.1922L213.431 40.2075C214.792 41.005 216.024 38.8922 214.666 38.096L200.991 30.0806C199.63 29.2831 198.398 31.396 199.757 32.1922Z" fill="#4741AB"/>
<path d="M196.903 36.268L210.578 44.2833C211.939 45.0808 213.171 42.968 211.813 42.1718L198.138 34.1564C196.777 33.3589 195.545 35.4718 196.903 36.268Z" fill="#4741AB"/>
<path d="M259.244 83.415L264.377 94.9596C264.501 95.236 264.554 95.5389 264.532 95.8408C264.509 96.1428 264.411 96.4344 264.247 96.6891C264.055 96.9936 263.776 97.2343 263.447 97.3807C263.118 97.5271 262.752 97.5729 262.397 97.5121C262.276 97.4936 262.157 97.4619 262.043 97.4177C261.589 97.2424 261.224 96.8945 261.026 96.4501L255.892 84.9055C255.794 84.6854 255.74 84.4482 255.734 84.2074C255.728 83.9667 255.769 83.727 255.856 83.5022C256.03 83.0482 256.378 82.6821 256.822 82.4844C257.267 82.2868 257.772 82.2738 258.226 82.4483C258.68 82.6228 259.046 82.9705 259.244 83.415Z" fill="#6C63FF"/>
<path d="M263.963 94.0286L264.991 96.3586L265.517 99.6619C265.552 99.8794 265.514 100.102 265.409 100.296C265.304 100.489 265.138 100.643 264.937 100.732C264.736 100.822 264.51 100.842 264.296 100.791C264.082 100.739 263.891 100.618 263.753 100.446L261.625 97.7982L260.611 95.5191L263.963 94.0286Z" fill="#3F3D56"/>
<path d="M254.751 80.2031L255.486 84.825C255.51 84.9763 255.569 85.1201 255.657 85.2452C255.746 85.3703 255.862 85.4733 255.997 85.5464C256.131 85.6195 256.281 85.6607 256.434 85.6667C256.587 85.6727 256.74 85.6435 256.88 85.5812L257.609 85.2569L259.017 88.4223C259.061 88.5209 259.142 88.598 259.243 88.6367C259.344 88.6754 259.456 88.6724 259.554 88.6285C259.653 88.5847 259.73 88.5034 259.769 88.4027C259.808 88.3019 259.805 88.1899 259.762 88.0911L258.354 84.9257L259.083 84.6013C259.325 84.4936 259.514 84.2946 259.61 84.0477C259.705 83.8008 259.699 83.5261 259.592 83.2839C259.556 83.2036 259.51 83.1284 259.455 83.0602L256.516 79.4182C256.377 79.2469 256.186 79.126 255.972 79.0744C255.758 79.0227 255.533 79.0433 255.332 79.1328C255.13 79.2222 254.964 79.3757 254.859 79.5692C254.754 79.7628 254.716 79.9856 254.751 80.2031Z" fill="#3F3D56"/>
<path d="M256.88 88.5453C256.996 87.8987 257.252 87.2852 257.63 86.7482C258.009 86.2112 258.5 85.7637 259.071 85.4373C259.641 85.1108 260.275 84.9133 260.93 84.8586C261.585 84.804 262.243 84.8936 262.86 85.1211L272.994 72.7805L275.449 80.7075L265.448 91.211C264.997 92.221 264.192 93.0306 263.184 93.4863C262.176 93.9421 261.036 94.0123 259.98 93.6837C258.924 93.3552 258.025 92.6506 257.454 91.7035C256.883 90.7565 256.678 89.6328 256.88 88.5453Z" fill="#9E616A"/>
<path d="M269.639 87.7436L265.176 81.296L277.851 64.396L271.321 50.4041L271.796 33.7609L277.192 32.7642L277.259 32.7978C279.882 34.3077 281.91 36.6696 283.006 39.4912C284.352 42.8562 287.356 55.4885 289.028 62.7187C289.356 64.1198 289.32 65.5817 288.924 66.965C288.527 68.3483 287.783 69.607 286.762 70.6212L269.639 87.7436Z" fill="#E4E4E4"/>
<path d="M143.96 56.5891C143.922 56.9023 143.91 57.2179 143.923 57.533L121.069 74.1593L114.79 71.3808L109.359 80.308L119.995 86.3071C120.855 86.7917 121.848 86.9845 122.826 86.8566C123.804 86.7286 124.715 86.2868 125.42 85.5975L148.422 63.1308C149.599 63.43 150.84 63.3636 151.979 62.9405C153.117 62.5174 154.1 61.7577 154.797 60.7624C155.493 59.767 155.87 58.5833 155.877 57.3685C155.884 56.1538 155.521 54.9656 154.837 53.9621C154.152 52.9586 153.178 52.1872 152.045 51.7507C150.911 51.3142 149.672 51.2331 148.491 51.5183C147.31 51.8034 146.244 52.4414 145.435 53.3472C144.625 54.253 144.111 55.3838 143.96 56.5891Z" fill="#FFB6B6"/>
<path d="M120.33 74.7674L113.665 85.8729C113.476 86.1889 113.22 86.4603 112.916 86.6686C112.612 86.8769 112.267 87.0173 111.904 87.0802C111.541 87.143 111.168 87.1269 110.812 87.0328C110.456 86.9388 110.124 86.769 109.839 86.5352L99.8606 78.34C98.2498 77.3604 97.0931 75.7822 96.6441 73.9512C96.195 72.1202 96.4903 70.1859 97.4651 68.5723C98.4399 66.9586 100.015 65.7973 101.844 65.3429C103.674 64.8885 105.609 65.1781 107.226 66.1482L119.114 71.0794C119.455 71.2207 119.761 71.4337 120.011 71.7039C120.262 71.9741 120.451 72.2951 120.567 72.6451C120.682 72.9951 120.721 73.3658 120.68 73.7321C120.639 74.0983 120.52 74.4514 120.33 74.7674Z" fill="#6C63FF"/>
<path d="M91.7746 171.295H104.838V149.647H91.7746V171.295Z" fill="#CACACA"/>
<path d="M104.184 161.102L102.507 163.573L133.86 184.847L135.536 182.377L104.184 161.102Z" fill="#CACACA"/>
<path d="M92.4292 161.102L61.0764 182.377L62.7531 184.848L94.1059 163.573L92.4292 161.102Z" fill="#CACACA"/>
<path d="M134.698 187.718C136.965 187.718 138.804 185.88 138.804 183.612C138.804 181.345 136.965 179.506 134.698 179.506C132.43 179.506 130.592 181.345 130.592 183.612C130.592 185.88 132.43 187.718 134.698 187.718Z" fill="#CACACA"/>
<path d="M98.1194 187.718C100.387 187.718 102.225 185.88 102.225 183.612C102.225 181.345 100.387 179.506 98.1194 179.506C95.8519 179.506 94.0137 181.345 94.0137 183.612C94.0137 185.88 95.8519 187.718 98.1194 187.718Z" fill="#CACACA"/>
<path d="M61.9148 187.718C64.1823 187.718 66.0205 185.88 66.0205 183.612C66.0205 181.345 64.1823 179.506 61.9148 179.506C59.6473 179.506 57.8091 181.345 57.8091 183.612C57.8091 185.88 59.6473 187.718 61.9148 187.718Z" fill="#CACACA"/>
<path d="M99.6124 162.337H96.6265V183.612H99.6124V162.337Z" fill="#CACACA"/>
<path d="M95.5068 159.351H101.105V130.611H95.5068V159.351Z" fill="#CACACA"/>
<path d="M82.2566 135.09V128.371C82.258 127.134 82.75 125.949 83.6246 125.074C84.4993 124.199 85.6852 123.707 86.9222 123.706H111.93C113.167 123.707 114.353 124.199 115.227 125.074C116.102 125.949 116.594 127.134 116.595 128.371V135.09C116.594 136.327 116.102 137.513 115.227 138.387C114.353 139.262 113.167 139.754 111.93 139.755H86.9222C85.6852 139.754 84.4993 139.262 83.6246 138.387C82.75 137.513 82.258 136.327 82.2566 135.09Z" fill="#3F3D56"/>
<path d="M127.423 181.014L134.339 181.013L137.63 163.076L127.423 163.076L127.423 181.014Z" fill="#FFB8B8"/>
<path d="M125.66 187.718L147.96 187.717V187.435C147.96 186.295 147.735 185.167 147.299 184.114C146.863 183.06 146.224 182.104 145.418 181.298C144.612 180.492 143.655 179.852 142.602 179.416C141.549 178.98 140.42 178.755 139.28 178.755H139.279L125.659 178.756L125.66 187.718Z" fill="#2F2E41"/>
<path d="M137.767 169.89L151.555 138.972C152.706 136.366 152.834 133.422 151.912 130.726C150.99 128.031 149.086 125.782 146.58 124.426L116.674 108.389L103.027 107.229L90.4388 106.084L90.3481 106.238C90.232 106.434 87.5254 111.109 89.3549 116.235C90.7427 120.124 94.3525 123.161 100.084 125.263C113.462 130.168 128.916 134.36 134.939 135.935C135.206 136.003 135.454 136.127 135.669 136.298C135.884 136.469 136.061 136.683 136.187 136.928C136.313 137.169 136.388 137.434 136.407 137.705C136.426 137.977 136.389 138.25 136.297 138.506L123.488 167.285C123.354 167.65 123.306 168.041 123.347 168.428C123.388 168.814 123.518 169.186 123.725 169.515C123.933 169.843 124.213 170.12 124.545 170.323C124.876 170.526 125.25 170.651 125.637 170.686L135.208 171.383C135.29 171.391 135.37 171.395 135.451 171.395C135.941 171.395 136.421 171.253 136.832 170.986C137.243 170.719 137.568 170.338 137.767 169.89Z" fill="#2F2E41"/>
<path d="M122.91 181.014L129.826 181.013L133.117 163.076L122.909 163.076L122.91 181.014Z" fill="#FFB8B8"/>
<path d="M121.147 187.718L143.447 187.717V187.435C143.447 186.295 143.222 185.167 142.786 184.114C142.35 183.06 141.711 182.104 140.905 181.298C140.099 180.492 139.142 179.852 138.089 179.416C137.036 178.98 135.907 178.755 134.767 178.755H134.766L121.146 178.756L121.147 187.718Z" fill="#2F2E41"/>
<path d="M132.69 171.583L146.478 140.664C147.629 138.058 147.757 135.114 146.835 132.419C145.913 129.723 144.009 127.474 141.503 126.119L111.597 110.082L97.9501 108.921L88.0903 108.066L88.0916 107.931C87.9755 108.127 85.2689 112.802 87.0985 117.928C88.4862 121.816 89.2754 124.853 95.0069 126.955C108.385 131.86 123.839 136.053 129.862 137.627C130.128 137.695 130.377 137.819 130.592 137.99C130.807 138.161 130.984 138.376 131.11 138.62C131.236 138.861 131.311 139.126 131.33 139.398C131.349 139.67 131.312 139.942 131.22 140.199L118.411 168.978C118.277 169.343 118.229 169.734 118.27 170.12C118.311 170.507 118.441 170.879 118.648 171.207C118.856 171.536 119.136 171.812 119.468 172.016C119.799 172.219 120.173 172.343 120.56 172.379L130.131 173.076C130.213 173.084 130.293 173.087 130.374 173.087C130.864 173.087 131.344 172.945 131.755 172.678C132.166 172.411 132.491 172.031 132.69 171.583Z" fill="#2F2E41"/>
<path d="M124.042 38.4088C125.812 30.9642 121.212 23.4939 113.768 21.7235C106.323 19.953 98.8528 24.5529 97.0824 31.9974C95.3119 39.442 99.9117 46.9123 107.356 48.6827C114.801 50.4531 122.271 45.8533 124.042 38.4088Z" fill="#FFB8B8"/>
<path d="M158.322 88.4372C164.116 80.7305 168.696 72.1824 171.904 63.09C172.09 62.5461 172.076 61.9539 171.866 61.4188C171.657 60.8838 171.264 60.4406 170.758 60.1681L150.931 49.5447C150.61 49.3715 150.254 49.2738 149.89 49.2591C149.526 49.2443 149.163 49.3128 148.829 49.4594C148.489 49.6071 148.188 49.8304 147.947 50.1124C147.706 50.3943 147.533 50.7274 147.441 51.0863C145.133 59.8481 140.796 67.9437 134.779 74.718C134.531 74.9938 134.35 75.3224 134.248 75.6789C134.147 76.0353 134.128 76.4103 134.193 76.7752C134.256 77.1342 134.4 77.4742 134.614 77.7693C134.828 78.0643 135.106 78.3066 135.428 78.4777L155.255 89.1012C155.762 89.3716 156.348 89.4533 156.91 89.3317C157.472 89.2101 157.972 88.8931 158.322 88.4372Z" fill="#CCCCCC"/>
<path d="M156.969 87.4204C156.863 87.5535 156.713 87.6452 156.546 87.6797C156.379 87.7142 156.205 87.6893 156.054 87.6094L136.228 76.9857C136.131 76.9355 136.048 76.8637 135.984 76.7759C135.92 76.6881 135.878 76.5867 135.86 76.4797C135.839 76.3667 135.845 76.2504 135.876 76.14C135.908 76.0296 135.965 75.9281 136.043 75.8434C142.237 68.8695 146.703 60.5354 149.078 51.5154C149.106 51.404 149.159 51.3004 149.233 51.2128C149.307 51.1252 149.4 51.056 149.506 51.0105C149.605 50.9661 149.713 50.9453 149.822 50.9498C149.931 50.9543 150.037 50.9839 150.132 51.0364L169.958 61.6598C170.108 61.7409 170.226 61.872 170.289 62.0303C170.353 62.1886 170.36 62.3643 170.308 62.5269C167.158 71.4566 162.659 79.8516 156.969 87.4204Z" fill="white"/>
<path d="M150.033 61.1296L163.707 69.1449C165.068 69.9424 166.3 67.8296 164.942 67.0334L151.267 59.018C149.906 58.2205 148.674 60.3334 150.033 61.1296Z" fill="#CCCCCC"/>
<path d="M147.588 65.6129L161.262 73.6282C162.623 74.4257 163.855 72.3129 162.497 71.5166L148.822 63.5013C147.461 62.7038 146.229 64.8166 147.588 65.6129Z" fill="#CCCCCC"/>
<path d="M145.666 70.0786L158.103 77.4616C159.34 78.1962 160.663 76.6775 159.428 75.9441L146.991 68.5611C145.754 67.8265 144.431 69.3452 145.666 70.0786Z" fill="#CCCCCC"/>
<path d="M141.882 74.5794L155.556 82.5947C156.917 83.3922 158.149 81.2794 156.791 80.4832L143.116 72.4678C141.755 71.6703 140.523 73.7832 141.882 74.5794Z" fill="#CCCCCC"/>
<path d="M118.551 109.512L91.1322 109.348L91.1247 109.153C90.6019 95.3957 92.2832 82.9337 96.2648 71.0553C96.3211 70.6107 96.3819 70.1354 96.4416 69.669C97.1217 64.3546 97.6618 60.1352 102.715 58.5638C102.294 58.004 102.046 57.3333 102.001 56.6343C101.969 56.1697 102.03 55.7034 102.18 55.2626C102.33 54.8218 102.567 54.4152 102.875 54.0666C103.171 53.73 103.53 53.4554 103.933 53.259C104.335 53.0627 104.773 52.9483 105.22 52.9227L114.98 52.5904C115.492 52.5869 115.991 52.7561 116.396 53.0708C117.139 53.6227 117.662 54.4212 117.87 55.3231C118.077 56.2251 117.957 57.1716 117.531 57.9931C117.416 58.2219 117.372 58.3262 117.355 58.3716C117.702 60.1894 118.732 62.3486 119.821 64.6336C121.381 67.9053 123.149 71.6133 123.603 75.5803C123.849 77.7222 123.747 79.8898 123.301 81.9992C123.098 83.1358 123.051 84.295 123.162 85.4444C123.251 87.1487 123.335 88.7579 122.372 90.3142C122.126 90.7361 121.845 91.1858 121.516 91.6841L120.16 94.9236L118.551 109.512Z" fill="#F5EAC2"/>
<path d="M77.4044 128.764V72.7385C77.4065 70.9128 78.1326 69.1626 79.4235 67.8717C80.7145 66.5807 82.4647 65.8546 84.2904 65.8525H86.1949C88.0205 65.8546 89.7708 66.5807 91.0617 67.8717C92.3526 69.1626 93.0787 70.9128 93.0808 72.7385V128.764C93.0787 130.589 92.3526 132.34 91.0617 133.631C89.7708 134.922 88.0205 135.648 86.1949 135.65H84.2904C82.4647 135.648 80.7145 134.922 79.4235 133.631C78.1326 132.34 77.4065 130.589 77.4044 128.764Z" fill="#3F3D56"/>
<path d="M150.932 78.3304C150.735 78.5768 150.558 78.8383 150.402 79.1125L122.216 81.1706L118.35 75.4966L109.024 80.2116L114.892 90.9214C115.366 91.7866 116.107 92.4748 117.006 92.8824C117.904 93.2901 118.911 93.3954 119.874 93.1825L151.269 86.242C152.111 87.1176 153.2 87.716 154.39 87.9577C155.581 88.1995 156.816 88.073 157.933 87.5952C159.05 87.1174 159.995 86.3109 160.642 85.283C161.29 84.2551 161.609 83.0544 161.557 81.8408C161.505 80.6271 161.085 79.458 160.353 78.4888C159.621 77.5196 158.611 76.7964 157.457 76.4153C156.304 76.0343 155.061 76.0134 153.896 76.3555C152.73 76.6976 151.696 77.3864 150.932 78.3304Z" fill="#FFB6B6"/>
<path d="M121.267 81.2966L109.744 87.211C109.417 87.3793 109.056 87.475 108.688 87.4914C108.32 87.5079 107.953 87.4449 107.611 87.3066C107.269 87.1683 106.962 86.958 106.709 86.6901C106.456 86.4221 106.263 86.1028 106.145 85.7538L101.996 73.5261C101.145 71.8475 100.993 69.9002 101.575 68.1103C102.156 66.3203 103.422 64.8333 105.096 63.9745C99.9887 66.5962 110.627 59.149 114.687 67.0589L122.181 77.5226C122.396 77.8223 122.543 78.1647 122.613 78.5264C122.683 78.8882 122.675 79.2608 122.588 79.619C122.501 79.9771 122.338 80.3124 122.11 80.6019C121.882 80.8914 121.595 81.1283 121.267 81.2966Z" fill="#F5EAC2"/>
<path d="M104.303 48.6794C103.469 48.6794 102.549 48.2774 101.511 47.4631C98.4586 45.066 96.2766 41.7335 95.2999 37.9769C94.3233 34.2203 94.6061 30.2471 96.1049 26.6666C96.8592 24.8648 98.27 22.4158 100.707 20.9806C102.459 19.9493 104.518 19.5767 106.309 19.3085C107.86 19.076 109.431 18.891 110.977 18.7592C112.825 18.6012 114.959 18.4945 116.906 19.234C118.332 19.7761 119.546 20.7334 120.72 21.6592C121.129 21.9816 121.552 22.3155 121.976 22.6244C123.003 23.4254 124.187 24.0006 125.452 24.3124C125.718 24.3677 125.97 24.4796 126.19 24.6406C126.41 24.8016 126.593 25.008 126.726 25.2457C126.862 25.4873 126.944 25.7553 126.968 26.0315C126.991 26.3078 126.955 26.5858 126.862 26.8469C126.679 27.3604 126.514 27.8233 126.848 28.3248C126.972 28.5014 127.137 28.645 127.329 28.743C127.522 28.841 127.735 28.8903 127.951 28.8868C128.065 28.8849 128.177 28.9115 128.278 28.9642C128.379 29.0169 128.465 29.094 128.529 29.1885C128.593 29.2821 128.634 29.3901 128.647 29.5031C128.66 29.616 128.646 29.7305 128.605 29.8364L128.551 29.9746C128.694 29.9879 128.832 30.036 128.953 30.1145C129.074 30.1931 129.174 30.2998 129.244 30.4255C129.349 30.6045 129.389 30.8139 129.359 31.0189C129.328 31.224 129.229 31.4126 129.077 31.5535C127.84 32.7304 126.299 33.5372 124.627 33.8823C123.483 34.1067 122.306 34.104 121.163 33.8743L120.979 33.8385L121.002 33.6347C116.378 31.9857 112.205 34.7842 109.825 37.9835L109.482 37.7666C109.541 37.6473 109.575 37.5174 109.583 37.3846C109.59 37.2517 109.571 37.1187 109.525 36.9936C109.477 36.8435 109.4 36.7042 109.299 36.5839C109.197 36.4635 109.072 36.3644 108.932 36.2923C108.649 36.1754 108.337 36.145 108.037 36.205C107.736 36.265 107.46 36.4127 107.243 36.6294C107.022 36.8608 106.852 37.1356 106.743 37.4364C106.635 37.7371 106.59 38.0572 106.612 38.3763C106.674 39.0526 106.846 39.7141 107.122 40.335C107.233 40.6319 107.349 40.9392 107.443 41.2488C107.97 43.0079 107.829 44.8995 107.049 46.5616C106.689 47.3198 106.038 48.2866 104.98 48.5863C104.76 48.6485 104.532 48.6799 104.303 48.6794Z" fill="#2F2E41"/>
</g>
<defs>
<clipPath id="clip0_149_2">
<rect width="330" height="188.533" fill="white"/>
</clipPath>
</defs>
</svg>
